<?xml version="1.0" encoding="UTF-8"?>
<svg version="1.1" xmlns="http://www.w3.org/2000/svg" width="866" height="288">
<path d="M0 0 C1.00731171 0.00506058 1.00731171 0.00506058 2.03497314 0.01022339 C27.49293434 0.19453749 49.69591317 7.58592401 69.75 23.4375 C70.61625 24.09492187 71.4825 24.75234375 72.375 25.4296875 C79.20578178 30.76149217 84.53508793 36.53880635 89.75 43.4375 C90.42804688 44.28957031 91.10609375 45.14164063 91.8046875 46.01953125 C110.79346597 70.66061148 117.1644708 103.50569672 113.25390625 134.02734375 C109.31754858 158.76000067 96.48805051 186.29597637 75.75 201.4375 C75.09 201.4375 74.43 201.4375 73.75 201.4375 C73.42 202.4275 73.09 203.4175 72.75 204.4375 C70.3515625 206.48046875 70.3515625 206.48046875 67.375 208.625 C66.39789063 209.34042969 65.42078125 210.05585938 64.4140625 210.79296875 C61.75 212.4375 61.75 212.4375 58.75 212.4375 C58.75 213.0975 58.75 213.7575 58.75 214.4375 C39.75452882 223.87814116 21.07811511 229.56132789 -0.25 229.4375 C-0.91805664 229.43476074 -1.58611328 229.43202148 -2.27441406 229.42919922 C-17.74037746 229.21978809 -33.31632644 226.23668563 -47.25 219.4375 C-47.84748047 219.15438965 -48.44496094 218.8712793 -49.06054688 218.57958984 C-60.85793059 212.98930675 -60.85793059 212.98930675 -64.25 209.4375 C-65.01570313 208.98890625 -65.78140625 208.5403125 -66.5703125 208.078125 C-69.76613535 206.12149876 -72.40709112 203.74048933 -75.125 201.1875 C-75.92043213 200.44463745 -75.92043213 200.44463745 -76.73193359 199.68676758 C-77.77846933 198.70634063 -78.82297983 197.72374643 -79.86523438 196.73876953 C-80.97513481 195.69579186 -82.10207919 194.67096419 -83.234375 193.65234375 C-96.0850434 181.68898341 -105.16915064 164.39623924 -109.25 147.4375 C-109.59933594 146.25414062 -109.94867188 145.07078125 -110.30859375 143.8515625 C-117.56778852 117.69159857 -113.96310985 89.98837674 -103.25 65.4375 C-102.68656863 64.12539955 -102.12404531 62.81290874 -101.5625 61.5 C-101.129375 60.489375 -100.69625 59.47875 -100.25 58.4375 C-99.59 58.4375 -98.93 58.4375 -98.25 58.4375 C-97.99992187 57.56222656 -97.74984375 56.68695313 -97.4921875 55.78515625 C-96.19298314 52.28384136 -94.61651096 49.84817398 -92.375 46.875 C-91.35792969 45.51181641 -91.35792969 45.51181641 -90.3203125 44.12109375 C-89.63710937 43.23550781 -88.95390625 42.34992188 -88.25 41.4375 C-87.58097656 40.56867188 -86.91195312 39.69984375 -86.22265625 38.8046875 C-84.44269242 36.66873091 -82.68069353 34.91458489 -80.5625 33.125 C-78.3785129 31.26740212 -76.21845309 29.40820644 -74.1171875 27.45703125 C-53.96552729 8.78604858 -27.17252018 -0.21750347 0 0 Z M-54.25 40.4375 C-54.098048 45.45191603 -51.32298671 47.77104746 -47.94140625 51.08203125 C-46.35113994 52.64595139 -46.35113994 52.64595139 -44.25 52.4375 C-43.98272095 53.02944153 -43.71544189 53.62138306 -43.44006348 54.23126221 C-42.23184113 56.4711644 -40.99923069 57.94178548 -39.20898438 59.73730469 C-38.59494751 60.35764587 -37.98091064 60.97798706 -37.3482666 61.61712646 C-36.35603088 62.60328949 -36.35603088 62.60328949 -35.34375 63.609375 C-34.66324585 64.2917926 -33.9827417 64.97421021 -33.28161621 65.67730713 C-31.84498803 67.11529427 -30.40583915 68.55076692 -28.96435547 69.98388672 C-26.75123571 72.18627028 -24.54901528 74.39914933 -22.34765625 76.61328125 C-20.95116197 78.00845454 -19.55404773 79.40300762 -18.15625 80.796875 C-17.49475952 81.46241394 -16.83326904 82.12795288 -16.1517334 82.81365967 C-15.53769653 83.42139221 -14.92365967 84.02912476 -14.29101562 84.65527344 C-13.75077759 85.19392029 -13.21053955 85.73256714 -12.65393066 86.28753662 C-11.29459448 87.64872147 -11.29459448 87.64872147 -9.25 87.4375 C-9.04375 87.97375 -8.8375 88.51 -8.625 89.0625 C-6.72740052 92.34017183 -4.34131503 95.21885285 -1.25 97.4375 C0.07 97.4375 1.39 97.4375 2.75 97.4375 C2.75 96.7775 2.75 96.1175 2.75 95.4375 C4.73 94.4475 4.73 94.4475 6.75 93.4375 C6.75 92.7775 6.75 92.1175 6.75 91.4375 C7.41 91.4375 8.07 91.4375 8.75 91.4375 C9.93688006 90.0581529 11.1210978 88.67465997 12.23828125 87.23828125 C16.11231989 82.62347037 20.68007527 78.54228212 24.98336792 74.3323822 C28.32788349 71.05455314 31.65940437 67.76365224 34.99023438 64.47192383 C36.75309432 62.73438294 38.52038968 61.00133114 40.29199219 59.27270508 C42.84962523 56.77543823 45.39101527 54.26261476 47.9296875 51.74609375 C48.72849335 50.97309433 49.52729919 50.20009491 50.35031128 49.40367126 C51.07501617 48.67934402 51.79972107 47.95501678 52.54638672 47.20874023 C53.19082733 46.57540268 53.83526794 45.94206512 54.49923706 45.28953552 C55.9664123 43.52058753 55.9664123 43.52058753 55.62991333 41.35023499 C54.06500782 37.94848004 50.83497583 36.33679117 47.75 34.4375 C46.57050781 33.70660156 46.57050781 33.70660156 45.3671875 32.9609375 C15.87484684 15.79375413 -28.27942765 16.57264973 -54.25 40.4375 Z M71.75 57.4375 C70.8051617 58.47502813 69.89449484 59.54376783 69 60.625 C66.38743516 63.72391343 63.65513718 66.60685352 60.75 69.4375 C59.59778829 70.58997589 58.44567301 71.7425484 57.2940979 72.8956604 C54.76803291 75.41803093 52.23029876 77.9286228 49.69474792 80.44145203 C46.45691237 83.65261583 43.22428405 86.86899959 39.99194336 90.08569336 C38.28179219 91.78571079 36.56986154 93.48393991 34.85620117 95.18041992 C32.38253983 97.62995721 29.91527469 100.08577801 27.44921875 102.54296875 C26.29156258 103.68514107 26.29156258 103.68514107 25.11051941 104.85038757 C24.4059108 105.55484512 23.70130219 106.25930267 22.9753418 106.98510742 C22.35088669 107.60512131 21.72643158 108.22513519 21.08305359 108.86393738 C19.53453737 110.34811764 19.53453737 110.34811764 19.75 112.4375 C19.09 112.4375 18.43 112.4375 17.75 112.4375 C18.19187863 117.28942569 20.18790506 119.36727755 23.58984375 122.73828125 C24.07199844 123.2195195 24.55415314 123.70075775 25.05091858 124.19657898 C26.06755526 125.20719404 27.08902825 126.21296451 28.11499023 127.21411133 C29.68931409 128.75177185 31.2468905 130.30499352 32.80273438 131.86132812 C37.13568257 137.04210291 37.13568257 137.04210291 42.75 139.4375 C43.018125 140.035625 43.28625 140.63375 43.5625 141.25 C44.74917406 143.43597854 45.84599113 144.85082594 47.75 146.4375 C48.41 146.4375 49.07 146.4375 49.75 146.4375 C49.976875 146.994375 50.20375 147.55125 50.4375 148.125 C52.12550036 151.09909588 54.21676517 153.15758865 56.75 155.4375 C57.41 155.4375 58.07 155.4375 58.75 155.4375 C58.75 156.0975 58.75 156.7575 58.75 157.4375 C59.41 157.4375 60.07 157.4375 60.75 157.4375 C60.976875 157.994375 61.20375 158.55125 61.4375 159.125 C64.33468834 164.22956994 69.25522921 167.77896564 73.75 171.4375 C89.38264304 148.09004611 95.49433919 122.90764871 90.125 95.0625 C87.13612418 81.05771331 81.10525741 69.01173026 72.75 57.4375 C72.42 57.4375 72.09 57.4375 71.75 57.4375 Z M-73.25 59.4375 C-75.04495043 61.65277606 -75.04495043 61.65277606 -76.6875 64.5 C-77.30238281 65.51707031 -77.91726562 66.53414063 -78.55078125 67.58203125 C-79.11152344 68.52433594 -79.67226562 69.46664062 -80.25 70.4375 C-81.301875 72.04625 -81.301875 72.04625 -82.375 73.6875 C-93.32028897 93.40789133 -94.06065126 119.77338989 -88.25 141.109375 C-84.93794264 152.12559642 -80.22412169 162.98009821 -72.25 171.4375 C-66.05953896 166.25772648 -60.30284193 160.87854069 -55.05249023 154.73828125 C-51.18731904 150.30207612 -47.08399603 146.14430755 -42.91015625 142 C-42.14319931 141.23445801 -41.37624237 140.46891602 -40.58604431 139.68017578 C-38.16389119 137.26356803 -35.73826388 134.85048274 -33.3125 132.4375 C-31.65797107 130.78799314 -30.00367198 129.13825571 -28.34960938 127.48828125 C-24.31905798 123.46868629 -20.28565728 119.45196831 -16.25 115.4375 C-17.9172004 111.89415828 -19.84408119 109.61123963 -22.64453125 106.84765625 C-23.51787109 105.98076172 -24.39121094 105.11386719 -25.29101562 104.22070312 C-26.20560547 103.32287109 -27.12019531 102.42503906 -28.0625 101.5 C-28.96548828 100.60603516 -29.86847656 99.71207031 -30.79882812 98.79101562 C-32.48966688 97.11756977 -34.18255578 95.44619095 -35.87817383 93.77758789 C-37.58657042 92.09205199 -39.26537743 90.37633559 -40.92456055 88.64233398 C-42.95780444 86.20815389 -42.95780444 86.20815389 -45.25 86.4375 C-45.47437744 85.88932617 -45.69875488 85.34115234 -45.92993164 84.77636719 C-47.64221919 81.74257492 -49.92563082 79.45647687 -52.37109375 77.015625 C-52.87165787 76.51077576 -53.37222198 76.00592651 -53.88795471 75.48577881 C-54.94366914 74.42433881 -56.00199063 73.36548621 -57.06274414 72.30908203 C-58.68726151 70.68773802 -60.29797149 69.05348684 -61.90820312 67.41796875 C-62.93668907 66.38721105 -63.96595946 65.35723535 -64.99609375 64.328125 C-65.47743271 63.83757629 -65.95877167 63.34702759 -66.45469666 62.84161377 C-69.29155729 59.92664442 -69.29155729 59.92664442 -73.25 59.4375 Z M-0.25 130.4375 C-0.67821045 130.86571045 -1.1064209 131.2939209 -1.54760742 131.73510742 C-4.8585612 135.0460612 -8.16951497 138.35701497 -11.48046875 141.66796875 C-12.12846436 142.31668945 -12.77645996 142.96541016 -13.4440918 143.63378906 C-14.96785838 145.15570166 -16.49875522 146.67047039 -18.03125 148.18359375 C-19.97958555 150.16280081 -21.78234808 152.18338529 -23.5625 154.3125 C-26.5967764 157.82274133 -29.86447173 160.83695264 -33.390625 163.84375 C-37.99686774 167.71165434 -37.99686774 167.71165434 -41.3125 172.625 C-42.53212694 174.98294542 -43.92062598 175.27281299 -46.25 176.4375 C-46.58 177.0975 -46.91 177.7575 -47.25 178.4375 C-48.25 180.4375 -48.25 180.4375 -50.1875 181.3125 C-53.21000056 182.96113667 -53.91261741 185.36152005 -55.25 188.4375 C-34.64603242 203.84489168 -11.57553664 210.00482925 13.9296875 207.0078125 C28.90279133 204.60618594 46.09971386 198.61431714 56.75 187.4375 C51.55325076 181.30241483 46.01994765 175.5886509 40.30859375 169.93359375 C39.42269058 169.0514772 38.53678741 168.16936066 37.6240387 167.26051331 C34.81428629 164.46289318 32.00141398 161.6684325 29.1875 158.875 C25.47479156 155.18927807 21.76575657 151.49989389 18.05859375 147.80859375 C17.21469589 146.97299423 16.37079803 146.13739471 15.50132751 145.276474 C11.96983341 141.75960168 8.53416773 138.25588312 5.35571289 134.41430664 C3.02838375 131.24943113 3.02838375 131.24943113 -0.25 130.4375 Z " fill="#EEE9E1" transform="translate(195.25,32.5625)"/>
<path d="M0 0 C1.04289185 -0.00960754 2.08578369 -0.01921509 3.16027832 -0.02911377 C4.86468079 -0.03548859 4.86468079 -0.03548859 6.60351562 -0.04199219 C7.77877808 -0.04769226 8.95404053 -0.05339233 10.16491699 -0.05926514 C12.66673886 -0.06873516 15.16857332 -0.07525702 17.67041016 -0.07910156 C21.43871162 -0.08868646 25.2064389 -0.1196394 28.97460938 -0.15136719 C48.96565816 -0.24075361 66.08739586 0.22980127 83.32226562 11.28613281 C92.52252853 21.12827452 94.28562862 30.49659796 94.15820312 43.53222656 C93.68272862 55.15632685 88.25329515 62.4450329 80.00976562 70.16113281 C79.20539063 70.96550781 78.40101563 71.76988281 77.57226562 72.59863281 C77.05664062 73.11425781 76.54101562 73.62988281 76.00976562 74.16113281 C76.73292969 74.26296875 77.45609375 74.36480469 78.20117188 74.46972656 C85.40769618 76.24379444 91.75249952 81.9582023 95.82617188 88.02832031 C99.55664599 94.75056079 100.26479109 101.22002054 100.32226562 108.78613281 C100.32790527 109.4905249 100.33354492 110.19491699 100.33935547 110.9206543 C100.20808343 120.45345162 97.67641816 129.40029096 90.88085938 136.33300781 C64.86953424 158.54492591 22.21797799 149.16113281 -6.99023438 149.16113281 C-6.99023438 100.32113281 -6.99023438 51.48113281 -6.99023438 1.16113281 C-4.49618182 -0.08589346 -2.79087364 0.02075067 0 0 Z M24.00976562 27.16113281 C24.00976562 38.38113281 24.00976562 49.60113281 24.00976562 61.16113281 C30.38449354 61.9579738 35.76693728 62.22473618 42.07226562 61.91113281 C42.93142578 61.8840625 43.79058594 61.85699219 44.67578125 61.82910156 C51.28040565 61.51627749 56.64512608 60.65022707 61.38476562 55.66113281 C63.90153652 51.78917759 64.1690394 48.81361917 64.19726562 44.28613281 C64.21144531 43.25746094 64.225625 42.22878906 64.24023438 41.16894531 C63.94521115 37.31864216 63.23833724 34.46896711 60.55664062 31.61425781 C50.14927407 24.64584716 35.74696915 27.16113281 24.00976562 27.16113281 Z M24.00976562 87.16113281 C24.00976562 99.04113281 24.00976562 110.92113281 24.00976562 123.16113281 C34.82272314 125.86437219 50.98274623 125.60926115 61.25585938 121.19628906 C65.31307361 118.69110689 67.20133809 115.735722 68.58007812 111.20800781 C69.97196989 104.5775416 68.93302949 99.1147166 65.25976562 93.47363281 C60.64371716 88.72936077 55.32672607 87.28113488 48.87182617 87.04760742 C47.15153198 87.05546265 47.15153198 87.05546265 45.39648438 87.06347656 C44.27201904 87.06597412 43.14755371 87.06847168 41.98901367 87.07104492 C40.57273682 87.08014893 39.15645996 87.08925293 37.69726562 87.09863281 C30.92195312 87.12957031 30.92195312 87.12957031 24.00976562 87.16113281 Z " fill="#EFE9E1" transform="translate(483.990234375,70.8388671875)"/>
<path d="M0 0 C14.18131402 10.45403242 23.66672856 25.17806041 26.6875 42.5625 C30.28179274 66.4400785 31.0085288 94.82374875 16.6875 115.5625 C10.36206328 123.58549802 3.77298121 129.69136851 -5.3125 134.5625 C-6.0034375 134.95953125 -6.694375 135.3565625 -7.40625 135.765625 C-21.6116114 143.08684972 -40.09183138 143.12177202 -55.1875 138.875 C-69.03272035 134.04727684 -80.2647119 125.92506606 -88.3125 113.5625 C-88.74046875 112.94632812 -89.1684375 112.33015625 -89.609375 111.6953125 C-101.60692404 92.66216371 -101.83977899 64.15458093 -98.0625 42.75 C-95.52663248 31.97256302 -91.95949639 21.55352534 -85.3125 12.5625 C-84.6525 12.5625 -83.9925 12.5625 -83.3125 12.5625 C-83.065 11.985 -82.8175 11.4075 -82.5625 10.8125 C-81.12950012 8.23310021 -79.52825324 6.50128408 -77.3125 4.5625 C-76.6525 4.5625 -75.9925 4.5625 -75.3125 4.5625 C-75.3125 3.9025 -75.3125 3.2425 -75.3125 2.5625 C-73.37109375 1.16015625 -73.37109375 1.16015625 -70.75 -0.375 C-69.47962891 -1.13103516 -69.47962891 -1.13103516 -68.18359375 -1.90234375 C-46.6041379 -13.44074667 -20.67745334 -14.03874225 0 0 Z M-60.671875 28.12890625 C-71.49710632 43.06371613 -71.29917897 64.74691775 -68.96240234 82.17333984 C-67.67439021 89.16219263 -65.43501049 95.74248519 -61.3125 101.5625 C-60.92835938 102.14128906 -60.54421875 102.72007812 -60.1484375 103.31640625 C-55.86981318 109.10881287 -50.10429222 112.37859418 -43.3125 114.5625 C-33.86013722 115.7380232 -25.61740311 115.36004445 -17.82421875 109.78125 C-7.22859573 101.11638495 -3.14102627 89.98846396 -1.5234375 76.72607422 C0.00393219 61.05992821 -0.5747152 41.91460432 -10.32421875 28.87109375 C-16.22028035 21.9940236 -21.87773296 17.1009373 -31.16015625 16.32421875 C-43.33000221 16.0432624 -52.60606966 18.83468803 -60.671875 28.12890625 Z " fill="#F0EAE2" transform="translate(432.3125,80.4375)"/>
<path d="M0 0 C10.89 0 21.78 0 33 0 C37.4375 8 37.4375 8 38.92285156 10.67871094 C41.07276429 14.55052173 43.23050605 18.41710142 45.421875 22.265625 C50.23167899 30.71810303 54.74864935 39.25123981 59 48 C63.31452025 41.52821963 67.02740983 35.02394694 70.453125 28.03125 C72.3538883 24.30652192 74.4875514 20.76402397 76.67578125 17.203125 C78.281398 14.53183342 79.66648982 11.81518815 81 9 C81.66 9 82.32 9 83 9 C83.103125 8.2575 83.20625 7.515 83.3125 6.75 C84.09736729 3.61053083 84.65614011 2.23797771 87 0 C89.71630443 -0.35632458 92.02142924 -0.46742617 94.73046875 -0.390625 C95.48088943 -0.38496521 96.23131012 -0.37930542 97.00447083 -0.37347412 C99.39946504 -0.35109668 101.79295869 -0.30090171 104.1875 -0.25 C105.81182734 -0.22993659 107.43617815 -0.21168553 109.06054688 -0.1953125 C113.04094207 -0.15122794 117.02021671 -0.08219427 121 0 C121.495 1.485 121.495 1.485 122 3 C121.34 3 120.68 3 120 3 C119.91234375 3.52722656 119.8246875 4.05445312 119.734375 4.59765625 C118.73974728 7.85135862 117.02391526 10.56265365 115.25 13.4375 C114.66641724 14.3958374 114.66641724 14.3958374 114.07104492 15.37353516 C112.72019869 17.58619569 111.36038571 19.7931926 110 22 C109.20746826 23.29139893 109.20746826 23.29139893 108.39892578 24.60888672 C106.70650771 27.36615275 105.01042137 30.12111977 103.3125 32.875 C102.77850586 33.74181396 102.24451172 34.60862793 101.69433594 35.50170898 C99.14749014 39.61418065 96.56011922 43.68458827 93.85546875 47.6953125 C92.10627133 50.29437338 90.44184077 52.89825004 88.90625 55.62890625 C87.56929355 57.99323702 86.22028079 60.21444343 84.71875 62.46484375 C80.38781366 68.55362057 80.38781366 68.55362057 79.375 75.578125 C80.4321406 77.69653714 80.4321406 77.69653714 81.84375 79.44921875 C83 81 83 81 83 84 C83.66 84 84.32 84 85 84 C85.37697021 84.67877197 85.75394043 85.35754395 86.14233398 86.05688477 C95.24732655 102.47915779 95.24732655 102.47915779 104.79321289 118.64624023 C108.23662116 124.31645572 111.44425614 130.11276074 114.63964844 135.92553711 C115.03442383 136.64362549 115.42919922 137.36171387 115.8359375 138.1015625 C116.20686523 138.77735352 116.57779297 139.45314453 116.95996094 140.14941406 C117.86271945 141.75573086 118.82123186 143.33046734 119.7890625 144.8984375 C121 147 121 147 121 149 C109.78 149 98.56 149 87 149 C85.02 145.37 83.04 141.74 81 138 C79.25990488 134.99344513 77.51145525 131.99385382 75.75 129 C70.19365294 119.49041383 65.0514656 109.78516004 60 100 C57.75169117 102.08993739 56.21953426 104.10953938 54.73828125 106.79296875 C54.34189453 107.50517578 53.94550781 108.21738281 53.53710938 108.95117188 C52.93092773 110.0581543 52.93092773 110.0581543 52.3125 111.1875 C51.89677734 111.93708984 51.48105469 112.68667969 51.05273438 113.45898438 C50.03062275 115.30348466 49.0147019 117.1514131 48 119 C47.34 119 46.68 119 46 119 C45.89945313 119.99773437 45.89945313 119.99773437 45.796875 121.015625 C44.70114674 125.11923475 42.56308954 128.22019862 40.25 131.75 C39.37783113 133.09742257 38.50804971 134.44639342 37.640625 135.796875 C37.18937256 136.47186035 36.73812012 137.1468457 36.27319336 137.84228516 C34.91831729 139.98603862 34.91831729 139.98603862 34.10375977 142.48193359 C33.02173707 145.26065822 32.18168936 146.94769966 30 149 C24.81924704 150.31415748 19.73643486 150.21362497 14.4375 150.125 C13.00061341 150.13666225 11.563753 150.15224882 10.12695312 150.171875 C-0.96509683 150.25944955 -0.96509683 150.25944955 -5 149 C-3.58772109 145.15468612 -1.79532575 141.8456897 0.375 138.375 C0.71587646 137.8279541 1.05675293 137.2809082 1.40795898 136.71728516 C2.60022872 134.80829189 3.79961589 132.90390094 5 131 C5.47356934 130.2471875 5.94713867 129.494375 6.43505859 128.71875 C12.84149975 118.53785932 19.27326717 108.37244833 25.765625 98.24609375 C29.22731793 92.83531719 32.56686536 87.3876865 35.73828125 81.80078125 C36.15464844 81.20652344 36.57101562 80.61226563 37 80 C37.66 80 38.32 80 39 80 C40.00392976 73.474566 40.00392976 73.474566 39 67 C38.34 67 37.68 67 37 67 C36.50371094 66.12859375 36.00742187 65.2571875 35.49609375 64.359375 C34.80993855 63.15622564 34.12373721 61.95310259 33.4375 60.75 C33.07978516 60.1219043 32.72207031 59.49380859 32.35351562 58.84667969 C30.56161858 55.70690947 28.7572999 52.57639082 26.91015625 49.46875 C25.96462891 47.87546875 25.96462891 47.87546875 25 46.25 C24.4225 45.28578125 23.845 44.3215625 23.25 43.328125 C22 41 22 41 22 39 C21.34 39 20.68 39 20 39 C19.6596875 38.35675781 19.319375 37.71351562 18.96875 37.05078125 C16.14665278 31.78937128 13.20732333 26.63835519 10.0625 21.5625 C9.39476562 20.48355469 8.72703125 19.40460938 8.0390625 18.29296875 C6.65992584 16.0657423 5.27968692 13.83919806 3.8984375 11.61328125 C3.25132812 10.54464844 2.60421875 9.47601563 1.9375 8.375 C1.34839844 7.41335937 0.75929688 6.45171875 0.15234375 5.4609375 C-1 3 -1 3 0 0 Z " fill="#F0EAE2" transform="translate(651,71)"/>
<path d="M0 0 C9.9 0 19.8 0 30 0 C30 49.17 30 98.34 30 149 C19.77 149 9.54 149 -1 149 C-1.02255218 129.86812119 -1.04098219 110.73625311 -1.05181217 91.6043644 C-1.05697382 82.72158966 -1.06401404 73.83882376 -1.07543945 64.95605469 C-1.08539027 57.21604353 -1.09185438 49.47603877 -1.09408849 41.7360214 C-1.09539492 37.63575981 -1.09847651 33.53551651 -1.10573006 29.43526077 C-1.11249653 25.57924286 -1.11461567 21.72325084 -1.11310768 17.86722755 C-1.11338373 16.44901578 -1.11538514 15.03080317 -1.11920547 13.61259651 C-1.12415242 11.68213648 -1.12239527 9.75166269 -1.12025452 7.82119751 C-1.12117631 6.73901255 -1.1220981 5.65682758 -1.12304783 4.54184914 C-1 2 -1 2 0 0 Z " fill="#F1EBE2" transform="translate(600,71)"/>
<path d="M0 0 C9.9 0 19.8 0 30 0 C30 49.17 30 98.34 30 149 C19.77 149 9.54 149 -1 149 C-1.02255218 129.86812119 -1.04098219 110.73625311 -1.05181217 91.6043644 C-1.05697382 82.72158966 -1.06401404 73.83882376 -1.07543945 64.95605469 C-1.08539027 57.21604353 -1.09185438 49.47603877 -1.09408849 41.7360214 C-1.09539492 37.63575981 -1.09847651 33.53551651 -1.10573006 29.43526077 C-1.11249653 25.57924286 -1.11461567 21.72325084 -1.11310768 17.86722755 C-1.11338373 16.44901578 -1.11538514 15.03080317 -1.11920547 13.61259651 C-1.12415242 11.68213648 -1.12239527 9.75166269 -1.12025452 7.82119751 C-1.12117631 6.73901255 -1.1220981 5.65682758 -1.12304783 4.54184914 C-1 2 -1 2 0 0 Z M2 3 C2 50.52 2 98.04 2 147 C10.25 147 18.5 147 27 147 C27 99.48 27 51.96 27 3 C18.75 3 10.5 3 2 3 Z " fill="#DFD8D3" transform="translate(600,71)"/>
<path d="M0 0 C4.29779568 0.4958995 7.19707284 2.8878297 10 6 C17.7405549 16.78476523 17.7405549 16.78476523 16.9375 22.25 C16.4734375 23.61125 16.4734375 23.61125 16 25 C14.99437425 22.9887485 13.99312577 20.9848767 13.0625 18.9375 C12.10088469 16.93908064 12.10088469 16.93908064 10.4375 15.5625 C8.54736879 13.50800956 8.3675753 11.72005723 8 9 C6.35 8.67 4.7 8.34 3 8 C3 6.68 3 5.36 3 4 C1.58022091 1.77256213 1.58022091 1.77256213 0 0 Z " fill="#EEE8E3" transform="translate(560,79)"/>
<path d="M0 0 C1.39120471 0.00015906 2.78241534 0.00585033 4.17358398 0.01586914 C4.90463852 0.01728409 5.63569305 0.01869904 6.38890076 0.02015686 C8.73253406 0.02577131 11.07607313 0.03832617 13.41967773 0.05102539 C15.00496282 0.05603853 16.59024939 0.06060176 18.17553711 0.06469727 C22.06945383 0.07574542 25.96329979 0.09301967 29.85717773 0.11352539 C29.85717773 1.10352539 29.85717773 2.09352539 29.85717773 3.11352539 C19.29717773 2.78352539 8.73717773 2.45352539 -2.14282227 2.11352539 C-2.14282227 2.77352539 -2.14282227 3.43352539 -2.14282227 4.11352539 C-1.48282227 4.11352539 -0.82282227 4.11352539 -0.14282227 4.11352539 C0.18717773 6.09352539 0.51717773 8.07352539 0.85717773 10.11352539 C-2.23451316 7.58396011 -3.05213559 4.88897927 -4.14282227 1.11352539 C-3.14282227 0.11352539 -3.14282227 0.11352539 0 0 Z " fill="#C6BFBB" transform="translate(654.142822265625,70.886474609375)"/>
<path d="M0 0 C2.56695636 0.39491636 4.67123994 0.83561997 7 2 C7 2.66 7 3.32 7 4 C7.59167969 4.12117188 8.18335938 4.24234375 8.79296875 4.3671875 C13.03803585 5.26744643 17.02439661 6.20456621 21 8 C17.28331175 9.38173352 15.16873721 8.57549763 11.5625 7.125 C5.0965153 4.55299496 -0.73420821 3.78742863 -7.625 3.4375 C-8.81681885 3.37381226 -8.81681885 3.37381226 -10.03271484 3.30883789 C-16.02466574 3.00650291 -22.00034304 2.88106407 -28 3 C-28 2.67 -28 2.34 -28 2 C-24.50445393 1.20119775 -21.31650617 0.89075961 -17.734375 0.9375 C-16.27644531 0.94910156 -16.27644531 0.94910156 -14.7890625 0.9609375 C-13.28472656 0.98027344 -13.28472656 0.98027344 -11.75 1 C-9.74484408 1.02538172 -7.73962739 1.04645798 -5.734375 1.0625 C-4.84975586 1.07410156 -3.96513672 1.08570313 -3.05371094 1.09765625 C-1.00686939 1.23111037 -1.00686939 1.23111037 0 0 Z " fill="#D0C8C2" transform="translate(211,52)"/>
<path d="M0 0 C0 3 0 3 -1.73046875 5.015625 C-8.17447839 10.87567828 -14.85933954 15.73460184 -23 19 C-23.99 18.67 -24.98 18.34 -26 18 C-25.01 17.34 -24.02 16.68 -23 16 C-23.99 15.67 -24.98 15.34 -26 15 C-26 14.34 -26 13.68 -26 13 C-24.25 11.875 -24.25 11.875 -22 11 C-21.401875 11.350625 -20.80375 11.70125 -20.1875 12.0625 C-17.77919373 13.38296945 -17.77919373 13.38296945 -14.3125 11.75 C-10.9497172 10.38438751 -10.9497172 10.38438751 -10 8 C-9.2575 7.566875 -8.515 7.13375 -7.75 6.6875 C-4.68854024 4.80887696 -2.46050137 2.60110145 0 0 Z " fill="#D3C9C5" transform="translate(444,199)"/>
<path d="M0 0 C0.66 0 1.32 0 2 0 C3.05987432 7.32650983 4.11796547 14.64971227 5 22 C5.66 22 6.32 22 7 22 C7.83790789 23.78953185 8.67019396 25.58169695 9.5 27.375 C9.9640625 28.37273437 10.428125 29.37046875 10.90625 30.3984375 C12 33 12 33 12 35 C12.66 35.33 13.32 35.66 14 36 C13.01 36.495 13.01 36.495 12 37 C4.04265698 30.74780191 1.79815118 17.30078962 0.59375 7.79296875 C0.35369805 5.19574004 0.14864815 2.6039055 0 0 Z " fill="#D2C9C5" transform="translate(333,156)"/>
<path d="M0 0 C1 3 1 3 -0.49804688 6.13500977 C-3 9 -3 9 -6.23632812 9.78881836 C-8.11481445 9.81407593 -8.11481445 9.81407593 -10.03125 9.83984375 C-10.70418091 9.85592178 -11.37711182 9.87199982 -12.07043457 9.88856506 C-14.21419512 9.93242658 -16.35583503 9.9348505 -18.5 9.9375 C-19.94145637 9.96421763 -21.38286782 9.99348785 -22.82421875 10.02539062 C-34.15148242 10.21921904 -34.15148242 10.21921904 -38 9 C-37.34 7.35 -36.68 5.7 -36 4 C-35.63737061 4.48895752 -35.27474121 4.97791504 -34.90112305 5.48168945 C-32.14295877 7.68446634 -30.07461838 7.34037944 -26.58203125 7.29296875 C-25.32841797 7.28330078 -24.07480469 7.27363281 -22.78320312 7.26367188 C-20.81770508 7.2259668 -20.81770508 7.2259668 -18.8125 7.1875 C-17.47722837 7.17244967 -16.14194063 7.15876187 -14.80664062 7.14648438 C-11.53735424 7.11107694 -8.26887907 7.0616889 -5 7 C-4.896875 6.360625 -4.79375 5.72125 -4.6875 5.0625 C-4.460625 4.381875 -4.23375 3.70125 -4 3 C-3.01 2.67 -2.02 2.34 -1 2 C-0.67 1.34 -0.34 0.68 0 0 Z " fill="#D0C5C3" transform="translate(684,211)"/>
<path d="M0 0 C0.99 0.33 1.98 0.66 3 1 C1.88660534 3.22678932 0.85396324 4.06214387 -1.0625 5.625 C-6.17550949 9.92457616 -11.28138891 14.42208337 -15 20 C-15.66 19.67 -16.32 19.34 -17 19 C-16.1875 16.0625 -16.1875 16.0625 -15 13 C-14.01 12.67 -13.02 12.34 -12 12 C-11.34 11.01 -10.68 10.02 -10 9 C-8.88372472 7.96710914 -7.73516583 6.96839501 -6.5625 6 C-4.2605005 4.09078228 -2.08652556 2.14395287 0 0 Z " fill="#E8E2DD" transform="translate(194,161)"/>
<path d="M0 0 C3.30669336 2.73692466 4.86780532 6.39995179 6.6875 10.1875 C7.00783203 10.84169922 7.32816406 11.49589844 7.65820312 12.16992188 C8.44428292 13.77727907 9.22288683 15.38828858 10 17 C10.66 16.01 11.32 15.02 12 14 C12.98095748 12.98131338 13.97702078 11.97648017 15 11 C14.67 13.64 14.34 16.28 14 19 C13.21625 18.95875 12.4325 18.9175 11.625 18.875 C8.83883881 18.71271266 8.83883881 18.71271266 7 21 C6.80664062 20.38511719 6.61328125 19.77023438 6.4140625 19.13671875 C6.15367187 18.32847656 5.89328125 17.52023438 5.625 16.6875 C5.36976563 15.88699219 5.11453125 15.08648437 4.8515625 14.26171875 C4.01168189 11.77275472 4.01168189 11.77275472 2 9 C1.3671875 6.73828125 1.3671875 6.73828125 0.875 4.3125 C0.70742188 3.50425781 0.53984375 2.69601563 0.3671875 1.86328125 C0.24601563 1.24839844 0.12484375 0.63351563 0 0 Z " fill="#E1DAD5" transform="translate(700,102)"/>
<path d="M0 0 C3.64581598 -0.0293908 7.29160087 -0.04692874 10.9375 -0.0625 C11.95908203 -0.07087891 12.98066406 -0.07925781 14.03320312 -0.08789062 C20.1121997 -0.10731234 25.9726232 0.20179682 32 1 C32 1.33 32 1.66 32 2 C24.97942879 3.09266243 18.09531697 3.11532882 11 3.0625 C9.84371094 3.05798828 8.68742188 3.05347656 7.49609375 3.04882812 C4.66400775 3.03712529 1.83203189 3.02072996 -1 3 C-0.67 2.01 -0.34 1.02 0 0 Z " fill="#FEF9F4" transform="translate(508,194)"/>
<path d="M0 0 C3.4541913 1.0719904 4.05218083 2.09716431 5.8125 5.375 C7 9 7 9 7 11.1875 C5.53951485 13.83462934 3.42675102 15.25771721 1 17 C1.309375 16.4225 1.61875 15.845 1.9375 15.25 C3.19285032 12.78094132 3.19285032 12.78094132 4 9 C1.36 7.02 -1.28 5.04 -4 3 C-2.68 2.01 -1.36 1.02 0 0 Z M5 2 C7 3 7 3 7 3 Z " fill="#DED7D2" transform="translate(246,64)"/>
<path d="M0 0 C5.64673516 2.42002936 7.44714414 6.74557823 10 12 C10.40863281 12.81984375 10.81726563 13.6396875 11.23828125 14.484375 C14.13863636 20.58409091 14.13863636 20.58409091 13 24 C12.16209211 22.21046815 11.32980604 20.41830305 10.5 18.625 C10.0359375 17.62726563 9.571875 16.62953125 9.09375 15.6015625 C8 13 8 13 8 11 C6.35 10.67 4.7 10.34 3 10 C2.87625 9.278125 2.7525 8.55625 2.625 7.8125 C2.0095069 5.04278106 1.11555626 2.6029646 0 0 Z " fill="#DDD3CE" transform="translate(443,93)"/>
<path d="M0 0 C2.312692 2.312692 2.44799021 3.31624038 3.03515625 6.46484375 C3.20466797 7.34720703 3.37417969 8.22957031 3.54882812 9.13867188 C3.8030957 10.5240918 3.8030957 10.5240918 4.0625 11.9375 C4.405945 13.75941826 4.75093229 15.58104665 5.09765625 17.40234375 C5.24726807 18.21179443 5.39687988 19.02124512 5.55102539 19.85522461 C5.99249829 22.16939535 5.99249829 22.16939535 7 25 C6.91255992 27.5808926 6.77131505 30.11691478 6.5625 32.6875 C6.51029297 33.38939453 6.45808594 34.09128906 6.40429688 34.81445312 C6.27492135 36.54338054 6.13817469 38.27175355 6 40 C5.67 40 5.34 40 5 40 C4.95512451 39.37657715 4.91024902 38.7531543 4.86401367 38.11083984 C4.04878342 27.0915258 3.23477422 16.29957853 0.5859375 5.546875 C0 3 0 3 0 0 Z " fill="#FAF5ED" transform="translate(302,114)"/>
<path d="M0 0 C0.944198 0.1071936 0.944198 0.1071936 1.9074707 0.21655273 C9.68422164 1.01997959 17.37459437 1.11725352 25.1875 1.0625 C26.42564453 1.05798828 27.66378906 1.05347656 28.93945312 1.04882812 C31.95968785 1.03716699 34.97981677 1.02080236 38 1 C34.69715062 4.0069322 32.6148521 4.33912517 28.203125 4.14453125 C26.51703125 4.07588867 26.51703125 4.07588867 24.796875 4.00585938 C23.62640625 3.94205078 22.4559375 3.87824219 21.25 3.8125 C19.5175 3.74579102 19.5175 3.74579102 17.75 3.67773438 C11.56677149 3.39186593 5.93386097 2.77577366 0 1 C0 0.67 0 0.34 0 0 Z " fill="#FCF9F3" transform="translate(174,239)"/>
<path d="M0 0 C1.32 0.33 2.64 0.66 4 1 C3.34 2.65 2.68 4.3 2 6 C1.34 6 0.68 6 0 6 C-2.35910353 10.2637281 -2.35910353 10.2637281 -3 15 C-4.32 14.67 -5.64 14.34 -7 14 C-5.23570801 9.02790438 -2.6060834 4.56561939 0 0 Z " fill="#E2DED9" transform="translate(722,99)"/>
<path d="M0 0 C0.33 1.32 0.66 2.64 1 4 C0.01 4.495 0.01 4.495 -1 5 C-0.83886719 5.51304688 -0.67773438 6.02609375 -0.51171875 6.5546875 C0.16164624 9.77244694 0.17035092 12.83923596 0.1875 16.125 C0.20167969 17.36507812 0.21585938 18.60515625 0.23046875 19.8828125 C0 23 0 23 -2 25 C-1.98839844 23.97519531 -1.97679687 22.95039062 -1.96484375 21.89453125 C-1.95545978 20.533856 -1.94636023 19.17317876 -1.9375 17.8125 C-1.92912109 17.13896484 -1.92074219 16.46542969 -1.91210938 15.77148438 C-1.89402028 12.06321906 -1.94332196 8.57130426 -3 5 C-4.9001177 3.75825204 -4.9001177 3.75825204 -7 3 C-7.66 2.34 -8.32 1.68 -9 1 C-6.03824877 1.61277612 -4.61941217 2.25372522 -2 4 C-2 3.01 -2 2.02 -2 1 C-1.34 0.67 -0.68 0.34 0 0 Z " fill="#D7CAC8" transform="translate(549,99)"/>
<path d="M0 0 C5.75 0.75 5.75 0.75 8 3 C11 7.5 11 7.5 11 11 C11.66 11 12.32 11 13 11 C13 11.66 13 12.32 13 13 C9.61802772 11.87267591 8.75942186 10.85817627 6.5 8.1875 C5.9121875 7.50042969 5.324375 6.81335938 4.71875 6.10546875 C3.08850576 4.10841956 1.52939678 2.0749438 0 0 Z " fill="#E7E0DB" transform="translate(144,111)"/>
<path d="M0 0 C0.66 0 1.32 0 2 0 C0.69102776 4.36324082 -1.05375536 8.12992993 -3.29296875 12.0703125 C-4.16013611 14.43705656 -3.81703122 15.65819077 -3 18 C-4.5625 16.8125 -4.5625 16.8125 -6 15 C-5.6875 12.5 -5.6875 12.5 -5 10 C-5 9.01 -5 8.02 -5 7 C-5 5.68 -5 4.36 -5 3 C-3.68 3 -2.36 3 -1 3 C-0.67 2.01 -0.34 1.02 0 0 Z " fill="#DCD6D0" transform="translate(734,131)"/>
<path d="M0 0 C4.35763296 0.5028038 6.91905734 3.05301137 10 6 C11.375 8.8125 11.375 8.8125 12 11 C8.51329166 9.8905928 5.22515763 8.73662334 2 7 C2.226875 6.401875 2.45375 5.80375 2.6875 5.1875 C2.790625 4.465625 2.89375 3.74375 3 3 C1.64555699 1.22809091 1.64555699 1.22809091 0 0 Z " fill="#E1D8D4" transform="translate(560,79)"/>
<path d="M0 0 C0.33 0.66 0.66 1.32 1 2 C-1.16252661 6.86568488 -4.93525257 9.75933835 -9 13 C-9.66 12.67 -10.32 12.34 -11 12 C-9.35 9.03 -7.7 6.06 -6 3 C-5.34 3.33 -4.68 3.66 -4 4 C-2.68 2.68 -1.36 1.36 0 0 Z " fill="#E6E1DE" transform="translate(579,198)"/>
<path d="M0 0 C-0.99 0.33 -1.98 0.66 -3 1 C-3 1.66 -3 2.32 -3 3 C-8.10334017 4.905247 -12.46342706 6.42589023 -18 6 C-13.31096237 1.71870477 -6.32000725 -0.6116136 0 0 Z " fill="#E5DFD8" transform="translate(178,54)"/>
<path d="M0 0 C3.13408792 1.10456394 6.06663694 2.44278258 9 4 C4.971366 5.342878 1.96252199 4.18966338 -2 3.125 C-2.72445312 2.93808594 -3.44890625 2.75117187 -4.1953125 2.55859375 C-7.16335679 1.78646415 -10.08995474 0.97001509 -13 0 C-9.06289203 -1.96855398 -4.20904455 -0.74017319 0 0 Z " fill="#E1DAD5" transform="translate(230,37)"/>
<path d="M0 0 C0.66 0.99 1.32 1.98 2 3 C1.01 3.495 1.01 3.495 0 4 C0.66 4.66 1.32 5.32 2 6 C-2.12751449 5.39301257 -5.3321148 3.96189209 -9 2 C-6.32750728 -0.67249272 -3.5165484 -1.7582742 0 0 Z " fill="#E3DCD9" transform="translate(374,212)"/>
<path d="M0 0 C0.77387773 2.27304895 1.12944984 3.58096448 0.41088867 5.90698242 C-0.08060669 6.87148315 -0.08060669 6.87148315 -0.58203125 7.85546875 C-0.93716797 8.55994141 -1.29230469 9.26441406 -1.65820312 9.99023438 C-2.22958008 11.07788086 -2.22958008 11.07788086 -2.8125 12.1875 C-3.18181641 12.92419922 -3.55113281 13.66089844 -3.93164062 14.41992188 C-6.71898191 19.85949096 -6.71898191 19.85949096 -9 21 C-8.731875 20.38125 -8.46375 19.7625 -8.1875 19.125 C-6.83739613 15.57209509 -5.85525867 11.9757726 -4.87890625 8.3046875 C-3.93577832 5.83159649 -2.89466608 4.78856478 -1 3 C-0.67 2.01 -0.34 1.02 0 0 Z " fill="#CEC4C2" transform="translate(301,187)"/>
<path d="M0 0 C0.33 0.66 0.66 1.32 1 2 C0.13248611 4.30942263 -0.78806769 6.51151135 -1.8125 8.75 C-3.77328166 13.10524209 -5.56544859 17.43742675 -7 22 C-9 19 -9 19 -9 17 C-8.34 17 -7.68 17 -7 17 C-7.061875 16.278125 -7.12375 15.55625 -7.1875 14.8125 C-6.95946055 11.39190832 -5.87355117 9.84502214 -4 7 C-3.46375 5.9275 -2.9275 4.855 -2.375 3.75 C-1 1 -1 1 0 0 Z " fill="#FCF6F0" transform="translate(113,102)"/>
<path d="M0 0 C0.33 0.99 0.66 1.98 1 3 C1.99 3 2.98 3 4 3 C4 3.66 4 4.32 4 5 C-0.0188515 6.81242323 -3.61110675 8.33501617 -8 9 C-7.04270084 7.87411986 -6.08412105 6.7493285 -5.125 5.625 C-4.59132812 4.99851563 -4.05765625 4.37203125 -3.5078125 3.7265625 C-2.38567993 2.44163349 -1.20628025 1.20628025 0 0 Z " fill="#E7E3DD" transform="translate(134,193)"/>
<path d="M0 0 C0.73605469 0.48210937 1.47210938 0.96421875 2.23046875 1.4609375 C3.20628906 2.09257812 4.18210937 2.72421875 5.1875 3.375 C6.63189453 4.31472656 6.63189453 4.31472656 8.10546875 5.2734375 C10.69803936 6.81988312 13.16853116 7.97508075 16 9 C16 9.33 16 9.66 16 10 C13.69 10 11.38 10 9 10 C8.67 9.34 8.34 8.68 8 8 C7.21625 7.690625 6.4325 7.38125 5.625 7.0625 C3.00917846 6.00371509 1.69299886 5.22763008 0 3 C0 2.01 0 1.02 0 0 Z " fill="#E3DDD7" transform="translate(373,185)"/>
<path d="M0 0 C0.99 0.33 1.98 0.66 3 1 C1.68 2.32 0.36 3.64 -1 5 C-1 1 -1 1 0 0 Z M-5 3 C-3.68 3.99 -2.36 4.98 -1 6 C-1.78375 6.061875 -2.5675 6.12375 -3.375 6.1875 C-4.24125 6.455625 -5.1075 6.72375 -6 7 C-7.37466625 9.47636012 -7.37466625 9.47636012 -8 12 C-8.66 11.67 -9.32 11.34 -10 11 C-9.01 9.02 -8.02 7.04 -7 5 C-6.34 5 -5.68 5 -5 5 C-5 4.34 -5 3.68 -5 3 Z " fill="#DED8D4" transform="translate(102,86)"/>
<path d="M0 0 C0.33 0.66 0.66 1.32 1 2 C-0.58759644 6.58747193 -2.68985663 10.53706093 -7 13 C-6.39009109 9.44219804 -5.4216319 6.3171411 -4 3 C-3.34 3 -2.68 3 -2 3 C-2 2.34 -2 1.68 -2 1 C-1.34 0.67 -0.68 0.34 0 0 Z " fill="#E1DCDA" transform="translate(452,186)"/>
<path d="M0 0 C2.48935591 0.78930797 4.669779 1.8348895 7 3 C4.88229834 5.32947183 2.96664412 6.88750845 0 8 C-0.99 7.67 -1.98 7.34 -3 7 C-2.01 6.34 -1.02 5.68 0 5 C-0.99 4.67 -1.98 4.34 -3 4 C-3 3.34 -3 2.68 -3 2 C-2.01 1.34 -1.02 0.68 0 0 Z " fill="#E1DAD3" transform="translate(421,210)"/>
<path d="M0 0 C0.33 0 0.66 0 1 0 C0.67 2.31 0.34 4.62 0 7 C0.66 7.33 1.32 7.66 2 8 C1.01 8.66 0.02 9.32 -1 10 C-1.66 9.34 -2.32 8.68 -3 8 C-6.09926819 8.32198966 -6.09926819 8.32198966 -9 9 C-9 8.34 -9 7.68 -9 7 C-8.071875 6.5875 -7.14375 6.175 -6.1875 5.75 C-3.09616822 4.05279824 -1.88501798 2.8771327 0 0 Z " fill="#DCD7D1" transform="translate(546,124)"/>
<path d="M0 0 C2.62408366 2.37417093 4.38613402 4.84911879 6 8 C6 9.32 6 10.64 6 12 C5.34 12 4.68 12 4 12 C3.13353333 10.56988027 2.28218171 9.13059381 1.4375 7.6875 C0.72400391 6.48673828 0.72400391 6.48673828 -0.00390625 5.26171875 C-1 3 -1 3 0 0 Z " fill="#DFDBD5" transform="translate(684,126)"/>
<path d="M0 0 C1.051875 0.433125 1.051875 0.433125 2.125 0.875 C5.02553186 2.07064337 5.02553186 2.07064337 8.25 2.875 C9.1575 3.24625 10.065 3.6175 11 4 C11.875 6.125 11.875 6.125 12 8 C10.35 7.67 8.7 7.34 7 7 C7 6.34 7 5.68 7 5 C5.68 5.33 4.36 5.66 3 6 C2.67 5.34 2.34 4.68 2 4 C2.33 3.34 2.66 2.68 3 2 C2.01 2 1.02 2 0 2 C0 1.34 0 0.68 0 0 Z " fill="#F5EEE9" transform="translate(251,49)"/>
<path d="M0 0 C1.0725 0.165 2.145 0.33 3.25 0.5 C7.03028752 1.08810915 7.03028752 1.08810915 11 1 C11.66 1.66 12.32 2.32 13 3 C12.01 3 11.02 3 10 3 C10.66 4.32 11.32 5.64 12 7 C9.03 6.01 6.06 5.02 3 4 C3.33 3.34 3.66 2.68 4 2 C2.68 1.34 1.36 0.68 0 0 Z " fill="#E3DAD3" transform="translate(535,155)"/>
<path d="M0 0 C1.98 1.65 3.96 3.3 6 5 C6.66 4.67 7.32 4.34 8 4 C8 4.66 8 5.32 8 6 C8.66 6.33 9.32 6.66 10 7 C7 9 7 9 5 9 C1.92066875 7.46033438 1.26403957 5.09689694 0 2 C0 1.34 0 0.68 0 0 Z " fill="#DDD8D2" transform="translate(118,198)"/>
<path d="M0 0 C-0.66 0 -1.32 0 -2 0 C-2 0.66 -2 1.32 -2 2 C-5.3 2.66 -8.6 3.32 -12 4 C-12.33 3.01 -12.66 2.02 -13 1 C-11.39796533 0.63631108 -9.79325797 0.28438048 -8.1875 -0.0625 C-7.29417969 -0.25972656 -6.40085938 -0.45695313 -5.48046875 -0.66015625 C-3 -1 -3 -1 0 0 Z " fill="#E2DCD7" transform="translate(224,237)"/>
<path d="M0 0 C0 3 0 3 -1.6796875 4.82421875 C-2.40414063 5.43910156 -3.12859375 6.05398437 -3.875 6.6875 C-4.59429687 7.31011719 -5.31359375 7.93273437 -6.0546875 8.57421875 C-8 10 -8 10 -10 10 C-10.33 10.99 -10.66 11.98 -11 13 C-11.66 12.67 -12.32 12.34 -13 12 C-11.71937515 10.2925002 -10.38232443 8.62626404 -9 7 C-8.34 7 -7.68 7 -7 7 C-7 6.34 -7 5.68 -7 5 C-5.35666496 3.96210419 -3.68756133 2.96432076 -2 2 C-1.34 1.34 -0.68 0.68 0 0 Z " fill="#DAD5D2" transform="translate(279,224)"/>
<path d="M0 0 C0 0.99 0 1.98 0 3 C-0.99 3.66 -1.98 4.32 -3 5 C-3 4.34 -3 3.68 -3 3 C-6.63 2.67 -10.26 2.34 -14 2 C-14 1.67 -14 1.34 -14 1 C-12.04310963 0.63794536 -10.08442332 0.28558579 -8.125 -0.0625 C-7.03445313 -0.25972656 -5.94390625 -0.45695313 -4.8203125 -0.66015625 C-2 -1 -2 -1 0 0 Z " fill="#DED7D2" transform="translate(545,193)"/>
<path d="M0 0 C0.66 0.33 1.32 0.66 2 1 C0.35 2.65 -1.3 4.3 -3 6 C-2.01 6.33 -1.02 6.66 0 7 C-2.64 7.33 -5.28 7.66 -8 8 C-7.00310315 4.31148165 -6.31080309 3.19425193 -3 1.125 C-2.01 0.75375 -1.02 0.3825 0 0 Z " fill="#DCCFCA" transform="translate(563,139)"/>
<path d="M0 0 C0.66 0.33 1.32 0.66 2 1 C0.7934375 2.11375 0.7934375 2.11375 -0.4375 3.25 C-3.12017819 5.65094137 -3.12017819 5.65094137 -3.4375 8.125 C-4 10 -4 10 -7.0625 11.75 C-8.5165625 12.36875 -8.5165625 12.36875 -10 13 C-9.34 11.35 -8.68 9.7 -8 8 C-7.34 8 -6.68 8 -6 8 C-5.7525 7.4225 -5.505 6.845 -5.25 6.25 C-3.83316683 3.6997003 -2.12372463 1.98214299 0 0 Z " fill="#CEC7C4" transform="translate(355,85)"/>
<path d="M0 0 C0.33 0.99 0.66 1.98 1 3 C2.65 3.33 4.3 3.66 6 4 C4.37660195 5.70884005 2.70680947 7.37446717 1 9 C0.34 9 -0.32 9 -1 9 C-1 8.01 -1 7.02 -1 6 C-1.33 5.34 -1.66 4.68 -2 4 C-1.0625 1.875 -1.0625 1.875 0 0 Z " fill="#E8E0D8" transform="translate(278,187)"/>
<path d="M0 0 C0 3.41321235 -0.66867466 4.39472885 -2.5 7.1875 C-2.9640625 7.90292969 -3.428125 8.61835937 -3.90625 9.35546875 C-4.2671875 9.89816406 -4.628125 10.44085938 -5 11 C-6.231394 8.53721199 -6.07159196 6.7204945 -6 4 C-5.34 4 -4.68 4 -4 4 C-4 3.34 -4 2.68 -4 2 C-2.68 1.34 -1.36 0.68 0 0 Z " fill="#E5DDD9" transform="translate(749,109)"/>
<path d="M0 0 C0.66 0 1.32 0 2 0 C2 0.66 2 1.32 2 2 C2.99 2.33 3.98 2.66 5 3 C5 3.66 5 4.32 5 5 C5.66 5 6.32 5 7 5 C7.33 6.65 7.66 8.3 8 10 C6.84481082 9.09515208 5.70114594 8.1755794 4.5625 7.25 C3.60537109 6.48429687 3.60537109 6.48429687 2.62890625 5.703125 C0.81189446 3.80332371 0.39576803 2.56413092 0 0 Z " fill="#E7E1DB" transform="translate(134,99)"/>
<path d="M0 0 C-1.423125 0.12375 -1.423125 0.12375 -2.875 0.25 C-6.10461791 0.65074923 -6.10461791 0.65074923 -7.375 3.0625 C-7.58125 3.701875 -7.7875 4.34125 -8 5 C-11 5 -11 5 -14 4 C-12.68 3.67 -11.36 3.34 -10 3 C-10 2.34 -10 1.68 -10 1 C-3.71428571 -1.42857143 -3.71428571 -1.42857143 0 0 Z " fill="#E5DEDA" transform="translate(384,73)"/>
<path d="M0 0 C2.203125 0.9140625 2.203125 0.9140625 4 2 C2.5903653 2.70180531 1.17192359 3.38593958 -0.25 4.0625 C-1.03890625 4.44535156 -1.8278125 4.82820312 -2.640625 5.22265625 C-5.25993522 6.08564091 -6.44855176 5.93045933 -9 5 C-8.01 5 -7.02 5 -6 5 C-6 4.34 -6 3.68 -6 3 C-3.25 1.375 -3.25 1.375 0 0 Z " fill="#DDD5D1" transform="translate(239,250)"/>
<path d="M0 0 C4.27388127 2.92423455 5.70414139 5.01592842 7 10 C7.37125 11.11375 7.7425 12.2275 8.125 13.375 C8.558125 14.674375 8.558125 14.674375 9 16 C6.18368359 13.50506504 4.59044019 10.73437182 2.8125 7.4375 C2.28269531 6.46683594 1.75289062 5.49617187 1.20703125 4.49609375 C0 2 0 2 0 0 Z " fill="#D2CAC9" transform="translate(729,202)"/>
<path d="M0 0 C0.33 1.65 0.66 3.3 1 5 C-1.64 5.66 -4.28 6.32 -7 7 C-5.97478996 2.89915984 -4.64580209 0 0 0 Z " fill="#ECE2DD" transform="translate(350,95)"/>
<path d="M0 0 C2.33333823 2.12121657 3.9148886 4.01594365 5 7 C4.625 9.25 4.625 9.25 4 11 C2 10 2 10 0 8 C-0.36933645 5.24627091 -0.18336678 2.79634339 0 0 Z " fill="#EBE1DC" transform="translate(741,166)"/>
<path d="M0 0 C0.99 1.32 1.98 2.64 3 4 C2.01 4.33 1.02 4.66 0 5 C-1.39712274 6.95597184 -2.73779907 8.95436401 -4 11 C-5 9 -5 9 -4.25 6.625 C-3.0606167 4.12729507 -1.74223168 2.13819343 0 0 Z " fill="#D9D1CB" transform="translate(122,88)"/>
<path d="M0 0 C3.68802044 1.22934015 4.72356973 2.93859378 7 6 C6.67 6.66 6.34 7.32 6 8 C5.01 8 4.02 8 3 8 C2.67 7.01 2.34 6.02 2 5 C0.50014391 3.33289654 0.50014391 3.33289654 -1 2 C-0.67 1.34 -0.34 0.68 0 0 Z " fill="#E7E2DD" transform="translate(438,86)"/>
<path d="M0 0 C2.25 0.125 2.25 0.125 5 1 C7.3125 4.0625 7.3125 4.0625 9 7 C8.67 7.66 8.34 8.32 8 9 C6.5 7.625 6.5 7.625 5 6 C5 5.34 5 4.68 5 4 C4.360625 3.71125 3.72125 3.4225 3.0625 3.125 C1 2 1 2 0 0 Z " fill="#DED8D4" transform="translate(198,165)"/>
<path d="M0 0 C-1.32 0.33 -2.64 0.66 -4 1 C-4.12375 1.639375 -4.2475 2.27875 -4.375 2.9375 C-4.58125 3.618125 -4.7875 4.29875 -5 5 C-5.99 5.495 -5.99 5.495 -7 6 C-7 5.34 -7 4.68 -7 4 C-8.65 4 -10.3 4 -12 4 C-9.94577945 1.94577945 -8.66990976 1.31862408 -6 0.3125 C-5.29875 0.04050781 -4.5975 -0.23148438 -3.875 -0.51171875 C-2 -1 -2 -1 0 0 Z " fill="#D4D1CD" transform="translate(236,232)"/>
<path d="M0 0 C0.66 0.33 1.32 0.66 2 1 C2 2.66666667 2 4.33333333 2 6 C-2.75 5.25 -2.75 5.25 -5 3 C-2.625 1.4375 -2.625 1.4375 0 0 Z " fill="#E1DAD6" transform="translate(413,190)"/>
<path d="M0 0 C3.69782242 1.84891121 4.84569023 5.56955696 6.1875 9.3125 C6.455625 10.199375 6.72375 11.08625 7 12 C4 11 4 11 2.83203125 9.2578125 C2.49558594 8.55398437 2.15914062 7.85015625 1.8125 7.125 C1.46832031 6.42632812 1.12414062 5.72765625 0.76953125 5.0078125 C0 3 0 3 0 0 Z " fill="#F7F2ED" transform="translate(669,101)"/>
<path d="M0 0 C0.66 0.99 1.32 1.98 2 3 C-2.625 6 -2.625 6 -6 6 C-5.8125 4.125 -5.8125 4.125 -5 2 C-2.4375 0.75 -2.4375 0.75 0 0 Z " fill="#F7F0E8" transform="translate(381,96)"/>
<path d="M0 0 C0.99 0.33 1.98 0.66 3 1 C3 2.98 3 4.96 3 7 C1.02 5.35 -0.96 3.7 -3 2 C-2.01 1.34 -1.02 0.68 0 0 Z " fill="#E5E1DA" transform="translate(129,92)"/>
<path d="M0 0 C1.0326802 2.78823655 1.04509293 3.8677274 0.0625 6.75 C-0.288125 7.4925 -0.63875 8.235 -1 9 C-1.66 9 -2.32 9 -3 9 C-3.66 9.66 -4.32 10.32 -5 11 C-4.32902328 6.80639551 -2.1441606 3.59665648 0 0 Z " fill="#D7D2D0" transform="translate(728,88)"/>
<path d="M0 0 C0 3 0 3 -1 6 C-1.99 6 -2.98 6 -4 6 C-4.33 7.32 -4.66 8.64 -5 10 C-5.66 9.67 -6.32 9.34 -7 9 C-5.64978174 4.58110387 -3.73884332 2.65654657 0 0 Z " fill="#F9F1ED" transform="translate(109,74)"/>
<path d="M0 0 C0.66 0.33 1.32 0.66 2 1 C1.175 1.556875 0.35 2.11375 -0.5 2.6875 C-3.2745414 4.74927133 -3.2745414 4.74927133 -3.3125 7.75 C-3.209375 8.4925 -3.10625 9.235 -3 10 C-3.66 10 -4.32 10 -5 10 C-5 9.34 -5 8.68 -5 8 C-5.66 8 -6.32 8 -7 8 C-7 7.01 -7 6.02 -7 5 C-5.46875 3.61328125 -5.46875 3.61328125 -3.5 2.3125 C-2.8503125 1.87550781 -2.200625 1.43851562 -1.53125 0.98828125 C-1.0259375 0.66214844 -0.520625 0.33601563 0 0 Z " fill="#BFBAB3" transform="translate(145,68)"/>
<path d="M0 0 C7.37297297 2.34594595 7.37297297 2.34594595 10 4 C10.33 4.99 10.66 5.98 11 7 C6.00724943 5.72278474 3.42388092 3.82669043 0 0 Z " fill="#D0CCC8" transform="translate(131,241)"/>
<path d="M0 0 C0.33 1.32 0.66 2.64 1 4 C-1.4375 6.75 -1.4375 6.75 -4 9 C-4.33 8.34 -4.66 7.68 -5 7 C-3.35 4.69 -1.7 2.38 0 0 Z " fill="#DDD9D6" transform="translate(654,206)"/>
<path d="M0 0 C0.33 0.66 0.66 1.32 1 2 C0.0625 4.125 0.0625 4.125 -1 6 C-0.34 6.33 0.32 6.66 1 7 C-1.31 8.32 -3.62 9.64 -6 11 C-4.18690997 7.22272911 -2.0926741 3.62730178 0 0 Z " fill="#D8D0CB" transform="translate(275,193)"/>
<path d="M0 0 C1.75 1.4375 1.75 1.4375 3 3 C2.34 4.32 1.68 5.64 1 7 C-0.65 5.02 -2.3 3.04 -4 1 C-2.1875 0.3125 -2.1875 0.3125 0 0 Z " fill="#E3DED7" transform="translate(234,196)"/>
<path d="M0 0 C0.99 1.32 1.98 2.64 3 4 C2 6 2 6 -1.0625 7.125 C-2.031875 7.41375 -3.00125 7.7025 -4 8 C-2.87548273 5.0280615 -1.77706209 2.66559313 0 0 Z " fill="#F8F3ED" transform="translate(669,184)"/>
<path d="M0 0 C2.64465038 3.1254959 3.84414715 6.08788267 5 10 C2 9 2 9 0.25 5.5625 C-0.1625 4.386875 -0.575 3.21125 -1 2 C-0.67 1.34 -0.34 0.68 0 0 Z " fill="#E1DAD4" transform="translate(110,183)"/>
<path d="M0 0 C2.475 0.99 2.475 0.99 5 2 C5 2.99 5 3.98 5 5 C2 7 2 7 0 7 C0 4.69 0 2.38 0 0 Z " fill="#E9E0D9" transform="translate(428,79)"/>
<path d="M0 0 C4.84455959 2.37823834 4.84455959 2.37823834 7 4 C7.9375 6.75 7.9375 6.75 8 9 C6.84775972 8.07038578 5.70340824 7.1309875 4.5625 6.1875 C3.60537109 5.40439453 3.60537109 5.40439453 2.62890625 4.60546875 C1 3 1 3 0 0 Z " fill="#DDD5D0" transform="translate(107,219)"/>
<path d="M0 0 C2.375 0.3125 2.375 0.3125 5 1 C5.66 1.99 6.32 2.98 7 4 C6.67 4.99 6.34 5.98 6 7 C4.02 4.69 2.04 2.38 0 0 Z " fill="#E0DCD5" transform="translate(213,180)"/>
<path d="M0 0 C-0.75 1.9375 -0.75 1.9375 -2 4 C-4 4.8125 -4 4.8125 -6 5 C-6.66 4.67 -7.32 4.34 -8 4 C-7.01 3.67 -6.02 3.34 -5 3 C-5 2.34 -5 1.68 -5 1 C-3 0 -3 0 0 0 Z " fill="#E3DCD8" transform="translate(203,127)"/>
<path d="M0 0 C2.475 0.99 2.475 0.99 5 2 C4.60196439 4.88575819 4.20990931 5.82189513 1.9375 7.75 C1.298125 8.1625 0.65875 8.575 0 9 C-0.66 8.67 -1.32 8.34 -2 8 C-1.2265625 7.4121875 -1.2265625 7.4121875 -0.4375 6.8125 C0.036875 6.214375 0.51125 5.61625 1 5 C0.76956136 2.34533951 0.76956136 2.34533951 0 0 Z " fill="#FAF3EF" transform="translate(251,71)"/>
<path d="M0 0 C0.99 0.33 1.98 0.66 3 1 C4.6875 4.5625 4.6875 4.5625 6 8 C5.01 8 4.02 8 3 8 C0.89229241 5.11165997 0 3.61537605 0 0 Z " fill="#DBD0CA" transform="translate(248,213)"/>
<path d="M0 0 C1.98 0.66 3.96 1.32 6 2 C6.33 3.65 6.66 5.3 7 7 C5.83040013 6.02433888 4.66438823 5.044375 3.5 4.0625 C2.8503125 3.51722656 2.200625 2.97195312 1.53125 2.41015625 C1.0259375 1.94480469 0.520625 1.47945312 0 1 C0 0.67 0 0.34 0 0 Z " fill="#E5D9D4" transform="translate(220,187)"/>
<path d="M0 0 C3 1 3 1 4.75 3.4375 C5.36875 4.7059375 5.36875 4.7059375 6 6 C5.67 6.66 5.34 7.32 5 8 C2.5 5.6875 2.5 5.6875 0 3 C0 2.01 0 1.02 0 0 Z " fill="#E9E2DF" transform="translate(749,182)"/>
<path d="M0 0 C0.66 0.33 1.32 0.66 2 1 C1.34 2.65 0.68 4.3 0 6 C-0.99 5.34 -1.98 4.68 -3 4 C-4.98 4.99 -4.98 4.99 -7 6 C-5.01180815 3.01771223 -3.42353587 1.21480305 0 0 Z " fill="#D1C9C7" transform="translate(365,78)"/>
<path d="M0 0 C1.32 1.32 2.64 2.64 4 4 C2.02 4.66 0.04 5.32 -2 6 C-2.66 4.68 -3.32 3.36 -4 2 C-3.01 2 -2.02 2 -1 2 C-0.67 1.34 -0.34 0.68 0 0 Z " fill="#E6DDD8" transform="translate(262,54)"/>
<path d="M0 0 C2.475 0.495 2.475 0.495 5 1 C5 1.66 5 2.32 5 3 C5.66 3.33 6.32 3.66 7 4 C6.01 4 5.02 4 4 4 C4.33 5.32 4.66 6.64 5 8 C2.27573689 5.64722731 1.1858237 3.37503669 0 0 Z " fill="#DBD3D1" transform="translate(722,190)"/>
<path d="M0 0 C0.33 1.32 0.66 2.64 1 4 C-0.8125 4.6875 -0.8125 4.6875 -3 5 C-4.75 3.5625 -4.75 3.5625 -6 2 C-4.02 1.34 -2.04 0.68 0 0 Z " fill="#F5EFEA" transform="translate(169,185)"/>
<path d="M0 0 C4.95 0.33 9.9 0.66 15 1 C15 1.33 15 1.66 15 2 C10.05 2.33 5.1 2.66 0 3 C0 2.01 0 1.02 0 0 Z " fill="#FEFBF4" transform="translate(182,258)"/>
<path d="M0 0 C0.66 0.33 1.32 0.66 2 1 C1.34 2.32 0.68 3.64 0 5 C-1.65 5 -3.3 5 -5 5 C-3.35 3.35 -1.7 1.7 0 0 Z " fill="#E3DEDB" transform="translate(249,222)"/>
<path d="M0 0 C0 4.24645065 -1.81750806 6.38524772 -4 10 C-4.33 9.34 -4.66 8.68 -5 8 C-2.51612903 1.25806452 -2.51612903 1.25806452 0 0 Z " fill="#D4D1CD" transform="translate(695,193)"/>
<path d="M0 0 C0.66 0.33 1.32 0.66 2 1 C2 1.99 2 2.98 2 4 C0.824375 3.9690625 0.824375 3.9690625 -0.375 3.9375 C-2.98114961 3.81315937 -2.98114961 3.81315937 -5 5 C-4.1875 3.0625 -4.1875 3.0625 -3 1 C-2.01 0.67 -1.02 0.34 0 0 Z " fill="#F4EFEB" transform="translate(217,113)"/>
<path d="M0 0 C0 3.90838866 -1.50567876 5.11594107 -4 8 C-4 5.69 -4 3.38 -4 1 C-2.68 0.67 -1.36 0.34 0 0 Z " fill="#DFD8D0" transform="translate(372,107)"/>
<path d="M0 0 C2.475 0.99 2.475 0.99 5 2 C5 4.31 5 6.62 5 9 C0.57142857 3.85714286 0.57142857 3.85714286 0 0 Z " fill="#D3CBC9" transform="translate(273,97)"/>
<path d="M0 0 C0.99 0 1.98 0 3 0 C2.34 1.98 1.68 3.96 1 6 C-0.65 6.33 -2.3 6.66 -4 7 C-2.68 4.69 -1.36 2.38 0 0 Z " fill="#F9F5F0" transform="translate(246,80)"/>
<path d="M0 0 C0.99 0.99 1.98 1.98 3 3 C0.36 3.66 -2.28 4.32 -5 5 C-4.67 4.01 -4.34 3.02 -4 2 C-2.68 2 -1.36 2 0 2 C0 1.34 0 0.68 0 0 Z " fill="#E8E4DB" transform="translate(145,81)"/>
<path d="M0 0 C0.33 0.99 0.66 1.98 1 3 C-0.25 5.1875 -0.25 5.1875 -2 7 C-2.99 7 -3.98 7 -5 7 C-4.6875 5.0625 -4.6875 5.0625 -4 3 C-3.01 2.67 -2.02 2.34 -1 2 C-0.67 1.34 -0.34 0.68 0 0 Z " fill="#D9D2CE" transform="translate(684,211)"/>
<path d="M0 0 C0.33 0.66 0.66 1.32 1 2 C0.06553465 4.03144641 -0.93224776 6.03533587 -2 8 C-2.66 6.68 -3.32 5.36 -4 4 C-3.34 3.67 -2.68 3.34 -2 3 C-2 2.34 -2 1.68 -2 1 C-1.34 0.67 -0.68 0.34 0 0 Z " fill="#D9D3CF" transform="translate(452,186)"/>
<path d="M0 0 C1.485 0.99 1.485 0.99 3 2 C2.625 4.9375 2.625 4.9375 2 8 C1.01 8.495 1.01 8.495 0 9 C0 6.03 0 3.06 0 0 Z " fill="#F7F1EB" transform="translate(741,112)"/>
<path d="M0 0 C0.66 0.66 1.32 1.32 2 2 C1.25 3.9375 1.25 3.9375 0 6 C-2.125 6.75 -2.125 6.75 -4 7 C-4 5.68 -4 4.36 -4 3 C-2.68 2.67 -1.36 2.34 0 2 C0 1.34 0 0.68 0 0 Z " fill="#F5F1EC" transform="translate(255,98)"/>
<path d="M0 0 C3.05882701 1.52941351 3.68951234 3.94219546 5 7 C4.67 7.66 4.34 8.32 4 9 C3.01 8.34 2.02 7.68 1 7 C0.3125 3.375 0.3125 3.375 0 0 Z " fill="#DCD6D2" transform="translate(695,93)"/>
<path d="M0 0 C2.475 0.495 2.475 0.495 5 1 C5.33 3.31 5.66 5.62 6 8 C3.33264727 5.51047079 1.44253657 3.36591866 0 0 Z " fill="#D6CEC7" transform="translate(267,89)"/>
</svg>
