<?xml version="1.0" encoding="UTF-8"?>
<svg version="1.1" xmlns="http://www.w3.org/2000/svg" width="270" height="270">
<path d="M0 0 C0.69521759 0.00337372 1.39043518 0.00674744 2.10671997 0.01022339 C27.72599758 0.18956383 50.03603809 7.45955217 70.25 23.4375 C71.11625 24.09492187 71.9825 24.75234375 72.875 25.4296875 C79.70578178 30.76149217 85.03508793 36.53880635 90.25 43.4375 C90.92804688 44.28957031 91.60609375 45.14164063 92.3046875 46.01953125 C111.43616832 70.84579138 117.47470531 103.54196421 113.75390625 134.25 C110.7129786 154.64898299 102.14894754 173.40670923 89.25 189.4375 C88.66476563 190.17484375 88.07953125 190.9121875 87.4765625 191.671875 C84.10789088 195.72647524 80.58853405 198.93323699 76.2421875 201.91796875 C74.11154943 203.45874327 74.11154943 203.45874327 72.04296875 205.76953125 C68.5580383 209.09849279 64.80465527 211.4625542 60.6875 213.9375 C59.88465576 214.42162354 59.08181152 214.90574707 58.25463867 215.40454102 C33.36088094 230.16203795 0.09674551 234.17811257 -28.17700195 227.48461914 C-42.31204222 223.61417705 -56.1313196 217.39853503 -67.75 208.4375 C-68.79414062 207.63570312 -69.83828125 206.83390625 -70.9140625 206.0078125 C-76.44153444 201.62781575 -76.44153444 201.62781575 -78.75 199.4375 C-78.75 198.7775 -78.75 198.1175 -78.75 197.4375 C-79.62591797 197.05851562 -79.62591797 197.05851562 -80.51953125 196.671875 C-96.14805307 188.02281564 -105.36533706 162.9040887 -110.15332031 146.6862793 C-118.77053965 115.82310794 -114.06746195 84.1016784 -99.0078125 56.2109375 C-95.51876935 50.1875645 -95.51876935 50.1875645 -93.14453125 47.87109375 C-91.48791259 46.3759347 -91.48791259 46.3759347 -90.75 43.4375 C-90.09 43.4375 -89.43 43.4375 -88.75 43.4375 C-88.47414063 42.84582031 -88.19828125 42.25414062 -87.9140625 41.64453125 C-78.26909855 23.35793852 -53.09554137 10.7908557 -34.49902344 4.58105469 C-23.02032251 1.07973695 -11.98437624 -0.11380369 0 0 Z M-53.75 41.4375 C-53.17380903 45.00514821 -51.88030516 46.68909497 -49.3125 49.1875 C-48.38630859 50.10789062 -48.38630859 50.10789062 -47.44140625 51.046875 C-45.85746481 52.64919392 -45.85746481 52.64919392 -43.75 52.4375 C-43.48272095 53.02944153 -43.21544189 53.62138306 -42.94006348 54.23126221 C-41.73184113 56.4711644 -40.49923069 57.94178548 -38.70898438 59.73730469 C-38.09494751 60.35764587 -37.48091064 60.97798706 -36.8482666 61.61712646 C-35.85603088 62.60328949 -35.85603088 62.60328949 -34.84375 63.609375 C-34.16324585 64.2917926 -33.4827417 64.97421021 -32.78161621 65.67730713 C-31.34498803 67.11529427 -29.90583915 68.55076692 -28.46435547 69.98388672 C-26.25123571 72.18627028 -24.04901528 74.39914933 -21.84765625 76.61328125 C-20.45116197 78.00845454 -19.05404773 79.40300762 -17.65625 80.796875 C-16.99475952 81.46241394 -16.33326904 82.12795288 -15.6517334 82.81365967 C-15.03769653 83.42139221 -14.42365967 84.02912476 -13.79101562 84.65527344 C-13.25077759 85.19392029 -12.71053955 85.73256714 -12.15393066 86.28753662 C-10.79459448 87.64872147 -10.79459448 87.64872147 -8.75 87.4375 C-8.54375 87.97375 -8.3375 88.51 -8.125 89.0625 C-6.22418297 92.34572941 -3.77358811 95.12941747 -0.75 97.4375 C0.24 97.4375 1.23 97.4375 2.25 97.4375 C2.25 96.7775 2.25 96.1175 2.25 95.4375 C2.85070312 95.17582031 3.45140625 94.91414063 4.0703125 94.64453125 C6.38404277 93.36327201 7.5045833 92.18942918 9.125 90.125 C11.06910199 87.75699607 12.79929134 85.98170506 15.1875 84 C18.31399719 81.38395133 20.82647416 78.6103269 23.44140625 75.5 C25.60719057 73.03016389 27.91185835 70.74509989 30.25 68.4375 C31.30283545 67.38616932 32.3548804 66.33404658 33.40625 65.28125 C40.09375 58.59375 40.09375 58.59375 41.7097168 56.97827148 C43.13706282 55.55047298 44.56274399 54.12101066 45.98828125 52.69140625 C47.61884967 51.06647019 49.27146142 49.46354841 50.9375 47.875 C52.99993022 45.70108707 54.01734864 44.09980179 55.25 41.4375 C41.65329927 29.31469637 23.31631553 23.09811249 5.25 22.4375 C4.55261719 22.39753906 3.85523438 22.35757813 3.13671875 22.31640625 C-16.82202784 21.67742566 -39.00120534 27.53149361 -53.75 41.4375 Z M-73.75 60.4375 C-79.346104 69.83895472 -84.33901134 79.36155515 -87.625 89.8125 C-87.82794678 90.45372803 -88.03089355 91.09495605 -88.23999023 91.75561523 C-94.84526637 113.89599823 -90.78064527 139.42188474 -80.1875 159.5625 C-78.01229492 163.51102469 -75.64392972 166.97998222 -72.75 170.4375 C-68.75753281 168.84240081 -66.11799914 166.03332367 -63.1875 163 C-62.70603516 162.50951172 -62.22457031 162.01902344 -61.72851562 161.51367188 C-60.39883309 160.15838335 -59.07422778 158.79811877 -57.75 157.4375 C-57.14285156 156.86902344 -56.53570312 156.30054688 -55.91015625 155.71484375 C-54.52588843 154.47834483 -54.52588843 154.47834483 -54.75 152.4375 C-53.76 152.1075 -52.77 151.7775 -51.75 151.4375 C-50.35692122 150.06078049 -50.35692122 150.06078049 -48.96484375 148.2734375 C-45.48456891 144.16962486 -41.76491915 140.38085356 -37.94140625 136.6015625 C-37.32623138 135.9920575 -36.71105652 135.38255249 -36.07723999 134.75457764 C-33.49837331 132.20282196 -30.91542904 129.65526523 -28.32836914 127.11181641 C-26.42424016 125.23770162 -24.52622603 123.35756678 -22.62890625 121.4765625 C-22.03839981 120.89951569 -21.44789337 120.32246887 -20.8394928 119.72793579 C-19.43804268 118.33528729 -18.08840722 116.89084043 -16.75 115.4375 C-16.75 114.7775 -16.75 114.1175 -16.75 113.4375 C-17.41 113.4375 -18.07 113.4375 -18.75 113.4375 C-18.976875 112.880625 -19.20375 112.32375 -19.4375 111.75 C-21.12377267 108.77894815 -23.280354 106.79227875 -25.75 104.4375 C-26.575 103.591875 -27.4 102.74625 -28.25 101.875 C-30.67763704 99.42853107 -30.67763704 99.42853107 -33.25 97.4375 C-37.30445128 94.19393897 -40.70599165 90.50506536 -44.0625 86.5625 C-47.09949443 83.04911428 -50.36757798 80.03087305 -53.90234375 77.02734375 C-56.31439486 74.95185791 -58.53090911 72.71656632 -60.75 70.4375 C-61.595625 69.6125 -62.44125 68.7875 -63.3125 67.9375 C-65.75 65.4375 -65.75 65.4375 -67.8125 62.625 C-68.451875 61.903125 -69.09125 61.18125 -69.75 60.4375 C-71.07 60.4375 -72.39 60.4375 -73.75 60.4375 Z M72.25 59.4375 C68.52105318 62.17937266 65.66313685 65.17995861 62.72265625 68.70703125 C60.69577005 71.08875694 58.48899871 73.25591151 56.25 75.4375 C55.53440918 76.15542725 54.81881836 76.87335449 54.08154297 77.61303711 C51.28171289 80.40586641 48.45699006 83.17110295 45.62649536 85.93275452 C42.64829658 88.84413955 39.68322345 91.76873989 36.71875 94.6940918 C35.14989008 96.23762117 33.57659991 97.77665985 31.99902344 99.3112793 C29.71937167 101.53055391 27.45601626 103.76535389 25.1953125 106.00390625 C24.48400177 106.68941055 23.77269104 107.37491486 23.03982544 108.08119202 C22.07289261 109.04755836 22.07289261 109.04755836 21.08642578 110.03344727 C20.51304474 110.59572525 19.9396637 111.15800323 19.34890747 111.73731995 C18.03175151 113.3908789 18.03175151 113.3908789 18.44139099 115.49565125 C19.69374793 118.50314652 21.79355602 120.35191173 24.08984375 122.640625 C24.81307579 123.3646048 24.81307579 123.3646048 25.55091858 124.10321045 C26.56868554 125.11864221 27.59013437 126.13039527 28.61499023 127.13867188 C30.18722139 128.68722559 31.74562328 130.24875872 33.30273438 131.8125 C37.63239922 137.02225541 37.63239922 137.02225541 43.25 139.4375 C43.518125 140.035625 43.78625 140.63375 44.0625 141.25 C45.24917406 143.43597854 46.34599113 144.85082594 48.25 146.4375 C48.91 146.4375 49.57 146.4375 50.25 146.4375 C50.476875 146.994375 50.70375 147.55125 50.9375 148.125 C52.62550036 151.09909588 54.71676517 153.15758865 57.25 155.4375 C57.91 155.4375 58.57 155.4375 59.25 155.4375 C59.25 156.0975 59.25 156.7575 59.25 157.4375 C59.91 157.4375 60.57 157.4375 61.25 157.4375 C61.476875 157.994375 61.70375 158.55125 61.9375 159.125 C64.6322264 163.87285128 68.98011611 167.14358957 73.25 170.4375 C76.61847435 166.5276637 78.97635945 162.52835644 81.25 157.9375 C81.59885254 157.23407471 81.94770508 156.53064941 82.30712891 155.8059082 C85.33923923 149.5311834 87.56664402 143.206363 89.25 136.4375 C89.47429687 135.59703125 89.69859375 134.7565625 89.9296875 133.890625 C95.13416138 110.93390458 89.82528759 85.90392018 77.99609375 65.9609375 C76.28052628 63.48161628 74.45108254 61.48927497 72.25 59.4375 Z M0.25 131.4375 C-6.77932634 138.42052794 -13.80327348 145.40891694 -20.82036495 152.40424061 C-24.07869493 155.65212424 -27.33886302 158.89811751 -30.60327148 162.13989258 C-33.75231809 165.26724129 -36.89648329 168.39942108 -40.03729439 171.5350399 C-41.23766334 172.73170762 -42.43979396 173.92661085 -43.64369011 175.11973 C-45.32694368 176.78850938 -47.00387825 178.46339862 -48.67944336 180.13989258 C-49.43146027 180.88112366 -49.43146027 180.88112366 -50.19866943 181.6373291 C-52.45957109 183.91187006 -53.71881658 185.34394974 -54.75 188.4375 C-34.63204233 203.4814595 -11.53662886 210.28096874 13.46875 206.9375 C28.8809489 204.4943509 45.33990253 199.15671953 56.25 187.4375 C54.63405168 185.39630212 52.9643618 183.39677063 51.25 181.4375 C50.59 181.4375 49.93 181.4375 49.25 181.4375 C49.25 180.7775 49.25 180.1175 49.25 179.4375 C48.59 179.4375 47.93 179.4375 47.25 179.4375 C47.0025 178.86 46.755 178.2825 46.5 177.6875 C45.06700012 175.10810021 43.46575324 173.37628408 41.25 171.4375 C40.59 171.4375 39.93 171.4375 39.25 171.4375 C39.25 170.7775 39.25 170.1175 39.25 169.4375 C37.63025441 167.72519752 35.9541054 166.06586738 34.25 164.4375 C31.66472388 161.85222388 29.08850165 159.2684901 26.5625 156.625 C24.53837851 154.20843338 24.53837851 154.20843338 22.25 154.4375 C22.25 153.7775 22.25 153.1175 22.25 152.4375 C20.69616853 150.90512449 20.69616853 150.90512449 18.6875 149.3125 C15.04380747 146.22244273 11.94208751 142.93461773 8.8515625 139.30078125 C5.04163891 134.77045377 5.04163891 134.77045377 0.25 131.4375 Z " fill="#F0EBE3" transform="translate(135.75,19.5625)"/>
<path d="M0 0 C4.44519401 1.58635741 8.27323416 3.81670816 12.25 6.3125 C12.88679688 6.69083984 13.52359375 7.06917969 14.1796875 7.45898438 C17.14841367 9.325492 18.80180527 10.39953714 19.921875 13.79296875 C19.94765625 14.52128906 19.9734375 15.24960937 20 16 C19.18595703 16.70576172 19.18595703 16.70576172 18.35546875 17.42578125 C17.64003906 18.04839844 16.92460937 18.67101562 16.1875 19.3125 C15.47980469 19.92738281 14.77210938 20.54226562 14.04296875 21.17578125 C12.01755954 22.93276741 12.01755954 22.93276741 10.36328125 24.73046875 C9 26 9 26 7 26 C6.7628125 26.56203125 6.525625 27.1240625 6.28125 27.703125 C4.71052303 30.51894042 2.78528536 32.47955416 0.5 34.75 C-0.2940625 35.54921875 -1.088125 36.3484375 -1.90625 37.171875 C-4 39 -4 39 -6 39 C-6 39.99 -6 40.98 -6 42 C-7.57421875 43.61328125 -7.57421875 43.61328125 -9.6875 45.3125 C-12.26232771 47.46345064 -14.33710765 49.40452918 -16.5 52 C-19.1319961 55.15839531 -21.9646982 57.67870578 -25.08203125 60.33984375 C-28.48454584 63.28499385 -31.54957177 66.48200753 -34.5 69.875 C-37 72 -37 72 -39.375 72.1875 C-43.13292944 70.4874843 -46.20602544 68.03552855 -49 65 C-49 64.34 -49 63.68 -49 63 C-49.5775 62.773125 -50.155 62.54625 -50.75 62.3125 C-53.58972308 60.65599487 -54.95224536 58.57432012 -57 56 C-58.10664305 55.0205262 -59.2333376 54.0634214 -60.375 53.125 C-63.47439814 50.54879086 -66.02106801 47.76810602 -68.58984375 44.671875 C-71.43636042 41.29705746 -74.32900059 38.44733294 -78 36 C-78 35.34 -78 34.68 -78 34 C-78.66 34 -79.32 34 -80 34 C-81.2265625 32.71484375 -81.2265625 32.71484375 -82.625 30.9375 C-85.56978872 27.34398308 -88.84221276 24.4785261 -92.4609375 21.578125 C-94 20 -94 20 -94 17 C-88.99661162 19.85907907 -84.86529543 22.90120206 -81.15625 27.3203125 C-75.71995845 33.58689211 -69.75913415 39.34654767 -63.875 45.1875 C-62.69637945 46.36109203 -61.51799238 47.5349186 -60.33984375 48.70898438 C-58.1757538 50.86497675 -56.01032396 53.01960277 -53.84326172 55.17260742 C-46.56688509 62.40612038 -46.56688509 62.40612038 -43.375 65.75 C-41.13466888 68.19004674 -41.13466888 68.19004674 -38 69 C-38 68.34 -38 67.68 -38 67 C-36.34614767 65.65080468 -34.678298 64.31866272 -33 63 C-32.34 62.01 -31.68 61.02 -31 60 C-30.34 60 -29.68 60 -29 60 C-28.67 59.01 -28.34 58.02 -28 57 C-26.0625 54.8125 -26.0625 54.8125 -24 53 C-23.34 53 -22.68 53 -22 53 C-21.61328125 52.12601563 -21.61328125 52.12601563 -21.21875 51.234375 C-19.90165983 48.8197097 -18.44911616 47.18259823 -16.5 45.25 C-15.8915625 44.63640625 -15.283125 44.0228125 -14.65625 43.390625 C-13 42 -13 42 -11 42 C-10.690625 41.20335938 -10.690625 41.20335938 -10.375 40.390625 C-8.42038808 36.99226564 -5.77876283 34.48944072 -3 31.75 C-2.4534375 31.19570312 -1.906875 30.64140625 -1.34375 30.0703125 C2.7466133 26 2.7466133 26 5 26 C5.2475 25.38125 5.495 24.7625 5.75 24.125 C7.23740369 21.59641373 8.43678009 21.28160996 11 20 C12.99525994 17.00711009 13 15.76914404 13 12 C10.63356063 10.03454243 10.63356063 10.03454243 7.625 8.375 C2.11392405 5.11392405 2.11392405 5.11392405 0 3 C0 2.01 0 1.02 0 0 Z " fill="#F6F4F1" transform="translate(176,48)"/>
<path d="M0 0 C0.99 0 1.98 0 3 0 C2.39121243 4.92828031 0.25269592 8.8147541 -2.0625 13.125 C-2.4651709 13.87837646 -2.8678418 14.63175293 -3.28271484 15.40795898 C-6.69599909 21.67011033 -10.5250118 27.43849204 -15 33 C-15.58523437 33.73734375 -16.17046875 34.4746875 -16.7734375 35.234375 C-20.14210912 39.28897524 -23.66146595 42.49573699 -28.0078125 45.48046875 C-30.13845057 47.02124327 -30.13845057 47.02124327 -32.20703125 49.33203125 C-35.6919617 52.66099279 -39.44534473 55.0250542 -43.5625 57.5 C-44.76676636 58.2261853 -44.76676636 58.2261853 -45.99536133 58.96704102 C-63.55959252 69.37945407 -81.53658251 73.17052556 -101.8125 73.25 C-103.16080864 73.2707457 -104.50911595 73.29157829 -105.85742188 73.3125 C-107.12779297 73.31765625 -108.39816406 73.3228125 -109.70703125 73.328125 C-110.8669458 73.3374707 -112.02686035 73.34681641 -113.22192383 73.35644531 C-114.13868896 73.23881836 -115.0554541 73.12119141 -116 73 C-116.66 72.01 -117.32 71.02 -118 70 C-117.2565332 69.9906543 -116.51306641 69.98130859 -115.74707031 69.97167969 C-84.84331635 69.48598124 -52.78376572 65.25284325 -30 42 C-28.9231392 41.0963965 -27.83946208 40.20086978 -26.75 39.3125 C-21.64136871 34.96311328 -16.80702505 30.16176231 -14 24 C-13.34 24 -12.68 24 -12 24 C-11.731875 23.2575 -11.46375 22.515 -11.1875 21.75 C-10 19 -10 19 -8.4375 16.9375 C-6.90155627 14.86731498 -6.5988119 13.47009907 -6 11 C-5.02616054 9.31791365 -4.02304948 7.65261839 -3 6 C-1.9849911 4.00757511 -0.98126556 2.00925805 0 0 Z " fill="#F7F4F2" transform="translate(240,176)"/>
<path d="M0 0 C0.061875 0.5775 0.12375 1.155 0.1875 1.75 C1.32027301 4.88690987 3.34197595 6.09167504 6 8 C6.66 7.67 7.32 7.34 8 7 C8.4125 7.49628906 8.825 7.99257812 9.25 8.50390625 C12.94992135 12.85626909 16.79888465 16.65295616 21.15234375 20.34375 C23.75819691 22.6796522 25.80702532 25.27359905 28 28 C30.45999933 30.58299929 32.85711562 32.89034455 35.6875 35.0625 C37.998812 36.99900465 39.10657174 38.14102957 40 41 C39.625 43.25 39.625 43.25 39 45 C39.66 45.33 40.32 45.66 41 46 C27.9921875 59.0078125 14.984375 72.015625 1.9765625 85.0234375 C1.28505096 85.71532166 0.59353943 86.40720581 -0.118927 87.12005615 C-1.27305295 88.27348932 -2.42842481 89.4256795 -3.58590698 90.57574463 C-6.45507034 93.42807452 -9.03665819 96.3969264 -11.5703125 99.546875 C-13 101 -13 101 -16 102 C-16 101.34 -16 100.68 -16 100 C-16.66 100 -17.32 100 -18 100 C-17.67 100.99 -17.34 101.98 -17 103 C-20.26782914 101.91072362 -20.81937333 101.31652071 -22.75 98.625 C-23.19859375 98.01914063 -23.6471875 97.41328125 -24.109375 96.7890625 C-25 95 -25 95 -24 92 C-23.34 92 -22.68 92 -22 92 C-20.61061923 93.96147874 -19.2739589 95.96166576 -18 98 C-14.17444746 96.42529581 -11.75542436 93.99021491 -8.875 91.0625 C-7.57175781 89.74958984 -7.57175781 89.74958984 -6.2421875 88.41015625 C-3.89502107 86.01652414 -3.89502107 86.01652414 -2 83 C-1.34 83 -0.68 83 0 83 C0 82.34 0 81.68 0 81 C1.62699656 79.27126734 3.28392936 77.6369754 5 76 C6.16551798 74.84465207 7.32843149 73.68667307 8.48925781 72.52661133 C9.12631653 71.8927803 9.76337524 71.25894928 10.41973877 70.60591125 C13.27967537 67.75934506 16.13697159 64.91013476 18.99414062 62.06079102 C20.50432543 60.55567285 22.01540096 59.05144791 23.52734375 57.5480957 C25.71327557 55.37423955 27.8960093 53.19721714 30.078125 51.01953125 C30.75723938 50.34557816 31.43635376 49.67162506 32.13604736 48.97724915 C32.76049744 48.3528746 33.38494751 47.72850006 34.02832031 47.08520508 C34.57949524 46.53625076 35.13067017 45.98729645 35.69854736 45.42170715 C37.10797774 44.0124336 37.10797774 44.0124336 38 42 C37.34 42 36.68 42 36 42 C34.28769752 40.38025441 32.62836738 38.7041054 31 37 C30.175 36.175 29.35 35.35 28.5 34.5 C24.75 30.75 24.75 30.75 21 27 C20.401875 26.443125 19.80375 25.88625 19.1875 25.3125 C18 24 18 24 18 22 C17.41734375 21.7421875 16.8346875 21.484375 16.234375 21.21875 C13.8197097 19.90165983 12.18259823 18.44911616 10.25 16.5 C9.63640625 15.8915625 9.0228125 15.283125 8.390625 14.65625 C7 13 7 13 7 11 C6.360625 10.731875 5.72125 10.46375 5.0625 10.1875 C3 9 3 9 2 6 C0.67532254 5.3162955 -0.65863633 4.65035814 -2 4 C-2.66 3.01 -3.32 2.02 -4 1 C-2 0 -2 0 0 0 Z " fill="#F6F4F2" transform="translate(81,91)"/>
<path d="M0 0 C1.83203125 0.55078125 1.83203125 0.55078125 4 2 C5.05643833 4.4134408 5.89611293 6.68987656 6.6875 9.1875 C11.10353398 21.95764484 18.39135487 34.68867315 28.19921875 44.11328125 C30 46 30 46 30 48 C30.77537109 48.32677734 30.77537109 48.32677734 31.56640625 48.66015625 C34.99435463 50.54745368 37.90011377 52.9826262 40.9375 55.4375 C47.62679435 61.22239319 47.62679435 61.22239319 55.625 64.5 C58 65 58 65 59.23828125 66.34765625 C67.57047092 74.16254811 83.19870141 75.89665434 94 78 C94.33 79.32 94.66 80.64 95 82 C70.46749144 77.84301524 48.31472598 69.46287826 30 52 C30 51.34 30 50.68 30 50 C29.12408203 49.62101562 29.12408203 49.62101562 28.23046875 49.234375 C14.61021237 41.69671998 4.11206635 18.30283946 0 4 C0 2.68 0 1.36 0 0 Z " fill="#F7F4F2" transform="translate(27,167)"/>
<path d="M0 0 C3.99979874 2.84249656 5.99974567 5.31421632 8.0625 9.75 C8.56652344 10.82121094 9.07054687 11.89242187 9.58984375 12.99609375 C10.05519531 13.98738281 10.52054688 14.97867188 11 16 C11.70573564 17.27227775 12.41370303 18.54332306 13.125 19.8125 C16.89474381 27.33614836 19.36130352 36.61259696 19 45 C18.67 45 18.34 45 18 45 C18 47.68184461 18.30744359 50.39077982 18.5 53.0625 C18.5928125 54.35285156 18.685625 55.64320313 18.78125 56.97265625 C18.8534375 57.97167969 18.925625 58.97070312 19 60 C19.33 60 19.66 60 20 60 C20.24389797 68.40093015 20.27929005 76.83957883 18 85 C17.01 85.495 17.01 85.495 16 86 C15.79375 87.19625 15.5875 88.3925 15.375 89.625 C14.39497933 94.50929654 12.41426997 98.6183977 10.125 103 C9.7851709 103.67111816 9.4453418 104.34223633 9.09521484 105.03369141 C6.54301963 109.77452472 6.54301963 109.77452472 3.7421875 110.9375 C3.16726562 110.958125 2.59234375 110.97875 2 111 C3.34981375 106.54962398 5.15590524 102.70464582 7.375 98.625 C11.32662126 91.06252067 13.31646828 83.32714616 15 75 C15.19335938 74.04867187 15.38671875 73.09734375 15.5859375 72.1171875 C18.48481011 50.29359936 14.12370205 28.25565964 2.55078125 9.5234375 C-0.17846117 5.08240323 -0.17846117 5.08240323 -1 3 C-0.67 2.01 -0.34 1.02 0 0 Z " fill="#F6F4F2" transform="translate(210,76)"/>
<path d="M0 0 C1.65 0.33 3.3 0.66 5 1 C4.06409496 2.1055189 3.12620142 3.20935453 2.1875 4.3125 C1.66542969 4.92738281 1.14335937 5.54226562 0.60546875 6.17578125 C-1 8 -1 8 -2.76171875 9.48046875 C-4.21498646 10.9068469 -4.21498646 10.9068469 -3.85961914 12.79443359 C-2.66982381 15.84714903 -0.81910451 17.51738931 1.515625 19.80859375 C2.43730469 20.72060547 3.35898438 21.63261719 4.30859375 22.57226562 C5.28887242 23.52753885 6.26934276 24.48261541 7.25 25.4375 C8.21553318 26.38797203 9.1803844 27.33913735 10.14453125 28.29101562 C11.93313241 30.05349674 13.72479892 31.81287639 15.52050781 33.56811523 C18.88237071 36.86542877 22.21161723 40.19190767 25.5 43.5625 C27.8904578 45.89319636 30.38200997 47.93316576 33 50 C34.8125 51.625 34.8125 51.625 36 53 C36 53.66 36 54.32 36 55 C36.66 55 37.32 55 38 55 C42.26051165 58.78712146 45.91749355 63.20145903 49 68 C49 68.66 49 69.32 49 70 C45.9350908 68.66198588 44.14639067 67.29092019 42.0625 64.6875 C38.35685368 60.20560857 34.34985247 56.28434667 29.9375 52.5 C26.89693207 49.87276812 24.5113256 47.139157 22 44 C19.9054118 42.13679073 17.77390357 40.33217247 15.609375 38.55078125 C14.81273437 37.78314453 14.81273437 37.78314453 14 37 C14 36.34 14 35.68 14 35 C13.34 35 12.68 35 12 35 C10.66796875 33.64453125 10.66796875 33.64453125 9.1875 31.8125 C4.35221106 25.95489891 4.35221106 25.95489891 -1.6875 21.4375 C-4.28761828 19.82121026 -4.7719601 18.71923121 -6 16 C-6.99 15.34 -7.98 14.68 -9 14 C-8 11 -8 11 -7 10 C-6.67 9.01 -6.34 8.02 -6 7 C-4.3540349 5.31288577 -2.68762851 3.6454378 -1 2 C-0.67 1.34 -0.34 0.68 0 0 Z " fill="#F6F3F1" transform="translate(159,122)"/>
<path d="M0 0 C0.66 0.99 1.32 1.98 2 3 C-16.66666667 21.66666667 -35.33333333 40.33333333 -54 59 C-54.66 58.67 -55.32 58.34 -56 58 C-54.53023536 54.54992089 -52.59081481 52.43506916 -49.875 49.875 C-48.54605277 48.62172237 -47.24452827 47.33714433 -46 46 C-46 45.34 -46 44.68 -46 44 C-44.33359928 42.99955689 -42.66686894 41.9996628 -41 41 C-39.14041517 39.3001175 -37.33018031 37.54526114 -35.5625 35.75 C-35.0780542 35.25983398 -34.5936084 34.76966797 -34.09448242 34.26464844 C-31.0878777 31.19695234 -28.27859934 28.024514 -25.54516602 24.71606445 C-23.9219733 22.91334339 -22.20669997 21.39089884 -20.35546875 19.82421875 C-15.86078315 15.93672889 -11.67515592 11.78791243 -7.5 7.5625 C-6.77296875 6.83095703 -6.0459375 6.09941406 -5.296875 5.34570312 C-3.52890501 3.56610176 -1.76333622 1.78419082 0 0 Z " fill="#F6F3F1" transform="translate(134,149)"/>
<path d="M0 0 C1.66666667 0 3.33333333 0 5 0 C6.2615356 1.49844369 7.45941543 3.05076426 8.625 4.625 C11.79115351 8.70149421 14.84527583 11.59199735 19.0625 14.5078125 C21.87961492 16.67744536 23.99295417 19.31497023 26.2578125 22.0390625 C28.5204239 24.5857686 31.04261867 26.67089557 33.71484375 28.7734375 C34.35099609 29.38058594 34.35099609 29.38058594 35 30 C35 30.66 35 31.32 35 32 C35.66 32 36.32 32 37 32 C38.76171875 33.609375 38.76171875 33.609375 40.6875 35.75 C41.33074219 36.44609375 41.97398437 37.1421875 42.63671875 37.859375 C44 40 44 40 43.70703125 42.265625 C43.47371094 42.83796875 43.24039063 43.4103125 43 44 C41 42.625 41 42.625 39 41 C39 40.34 39 39.68 39 39 C38.34 39 37.68 39 37 39 C37 38.34 37 37.68 37 37 C36.01 36.67 35.02 36.34 34 36 C31.38051134 33.58201047 29.08630254 31.10914733 26.875 28.3125 C25.03438927 25.80846331 25.03438927 25.80846331 22 24 C22 23.34 22 22.68 22 22 C21.34 22 20.68 22 20 22 C20 21.34 20 20.68 20 20 C19.01 19.67 18.02 19.34 17 19 C15.28891311 17.37897032 13.62746694 15.70496537 12 14 C11.154375 13.175 10.30875 12.35 9.4375 11.5 C7 9 7 9 4.875 6.3125 C3.03438927 3.80846331 3.03438927 3.80846331 0 2 C0 1.34 0 0.68 0 0 Z " fill="#F6F4F1" transform="translate(138,152)"/>
<path d="M0 0 C1.60725635 3.21451269 1.05748185 6.43612536 1 10 C0.34 10 -0.32 10 -1 10 C-0.67 10.66 -0.34 11.32 0 12 C0.07326477 13.87759287 0.08357674 15.75781521 0.0625 17.63671875 C0.05476563 18.77173828 0.04703125 19.90675781 0.0390625 21.07617188 C0.01323207 23.464195 -0.01280611 25.85221589 -0.0390625 28.24023438 C-0.07779645 33.95672026 0.08112546 39.34429159 1 45 C1.06400078 47.31170807 1.08633991 49.62502904 1.0625 51.9375 C1.05347656 53.08089844 1.04445313 54.22429687 1.03515625 55.40234375 C1.02355469 56.25957031 1.01195312 57.11679688 1 58 C1.99 57.505 1.99 57.505 3 57 C3 58.32 3 59.64 3 61 C1.515 61.495 1.515 61.495 0 62 C-3.27237681 51.0872077 -4.40817772 40.64683577 -4.4375 29.25 C-4.44716797 28.05608643 -4.45683594 26.86217285 -4.46679688 25.63208008 C-4.26719362 4.26719362 -4.26719362 4.26719362 0 0 Z " fill="#F9F7F6" transform="translate(26,105)"/>
<path d="M0 0 C-0.33 0.99 -0.66 1.98 -1 3 C-1.68964844 2.80664062 -2.37929687 2.61328125 -3.08984375 2.4140625 C-19.31498908 -2.08179396 -34.20465693 -3.15664051 -51 -3 C-51 -3.33 -51 -3.66 -51 -4 C-47.535 -4.495 -47.535 -4.495 -44 -5 C-46.64 -5 -49.28 -5 -52 -5 C-52 -5.33 -52 -5.66 -52 -6 C-35.15953134 -10.33240273 -15.68425113 -6.42369537 0 0 Z " fill="#F8F5F3" transform="translate(173,46)"/>
<path d="M0 0 C11.17860577 1.2474676 22.66546947 0.97931632 33.8125 -0.4140625 C34.8953125 -0.42566406 34.8953125 -0.42566406 36 -0.4375 C36.66 0.2225 37.32 0.8825 38 1.5625 C26.05350452 4.05258839 15.66400854 5.06940672 3.5 3.6875 C2.79230469 3.60927002 2.08460937 3.53104004 1.35546875 3.45043945 C-3.76092338 2.80157662 -3.76092338 2.80157662 -6 0.5625 C-3.56675303 -0.65412348 -2.66684146 -0.37502458 0 0 Z " fill="#F6F4F1" transform="translate(121,225.4375)"/>
<path d="M0 0 C-0.01047363 0.65895264 -0.02094727 1.31790527 -0.03173828 1.99682617 C-0.34713151 19.60295691 -0.34713151 19.60295691 2 37 C2.33333333 38.66666667 2.66666667 40.33333333 3 42 C1.515 42.495 1.515 42.495 0 43 C-1.45869161 37.06798746 -2.33384082 31.38039133 -2.75390625 25.28515625 C-2.8685935 22.97208514 -2.8685935 22.97208514 -4 21 C-4.09800068 18.75174913 -4.12974764 16.50038076 -4.125 14.25 C-4.12757812 13.03828125 -4.13015625 11.8265625 -4.1328125 10.578125 C-4.00996074 7.26835418 -3.76231474 4.22295093 -3 1 C-1 0 -1 0 0 0 Z " fill="#F5F3F1" transform="translate(46,120)"/>
<path d="M0 0 C4.75404255 3.37787234 4.75404255 3.37787234 6.0625 6.6875 C6.371875 7.450625 6.68125 8.21375 7 9 C9.01508358 9.73323796 9.01508358 9.73323796 11 10 C11.33 10.66 11.66 11.32 12 12 C11.34 12 10.68 12 10 12 C10.2475 12.5775 10.495 13.155 10.75 13.75 C11 16 11 16 9.5625 18 C6.35052727 20.50690555 2.97224715 22.92935526 -1 24 C-3.25 23.1015625 -3.25 23.1015625 -5 22 C-4.31292969 21.60167969 -3.62585938 21.20335937 -2.91796875 20.79296875 C-1.56638672 19.99826172 -1.56638672 19.99826172 -0.1875 19.1875 C0.70582031 18.66542969 1.59914062 18.14335937 2.51953125 17.60546875 C4.68381806 16.20464689 6.36553823 14.98198853 8 13 C8 12.34 8 11.68 8 11 C6.68 10.34 5.36 9.68 4 9 C4 8.34 4 7.68 4 7 C3.34 7 2.68 7 2 7 C2 6.34 2 5.68 2 5 C1.34 5 0.68 5 0 5 C-0.33 4.01 -0.66 3.02 -1 2 C-0.67 1.34 -0.34 0.68 0 0 Z " fill="#F7F4F2" transform="translate(183,194)"/>
<path d="M0 0 C0 3 0 3 -2.01953125 5.36010742 C-3.40205078 6.71906128 -3.40205078 6.71906128 -4.8125 8.10546875 C-5.30081299 8.5895369 -5.78912598 9.07360504 -6.29223633 9.57234192 C-7.85459826 11.1179014 -9.42706327 12.65271107 -11 14.1875 C-12.06057762 15.23303282 -13.12048229 16.27924873 -14.1796875 17.32617188 C-16.77869434 19.89208902 -19.3868639 22.44846467 -22 25 C-22.66 24.01 -23.32 23.02 -24 22 C-23.01 21.34 -22.02 20.68 -21 20 C-21 19.34 -21 18.68 -21 18 C-20.34 18 -19.68 18 -19 18 C-19 17.34 -19 16.68 -19 16 C-17.68 15.67 -16.36 15.34 -15 15 C-15 14.34 -15 13.68 -15 13 C-14.34 12.67 -13.68 12.34 -13 12 C-12.71125 11.360625 -12.4225 10.72125 -12.125 10.0625 C-11 8 -11 8 -9 7.0625 C-6.72807229 6.14111637 -6.72807229 6.14111637 -6.0625 3.4375 C-5.711875 2.633125 -5.36125 1.82875 -5 1 C-2.375 0.1875 -2.375 0.1875 0 0 Z " fill="#F6F5F3" transform="translate(187,98)"/>
<path d="M0 0 C0.7031987 0.00141495 1.4063974 0.0028299 2.13090515 0.00428772 C4.36205419 0.00985516 6.59310039 0.0224015 8.82421875 0.03515625 C10.3430975 0.04017546 11.86197784 0.04473763 13.38085938 0.04882812 C17.09117887 0.05981389 20.80143876 0.07705591 24.51171875 0.09765625 C23.85171875 1.08765625 23.19171875 2.07765625 22.51171875 3.09765625 C20.22436523 3.42236328 20.22436523 3.42236328 17.3828125 3.35546875 C15.82916992 3.33419922 15.82916992 3.33419922 14.24414062 3.3125 C13.15681641 3.28285156 12.06949219 3.25320312 10.94921875 3.22265625 C3.68830952 3.07258275 -3.28410696 3.11492523 -10.48828125 4.09765625 C-10.48828125 3.43765625 -10.48828125 2.77765625 -10.48828125 2.09765625 C-11.14828125 1.76765625 -11.80828125 1.43765625 -12.48828125 1.09765625 C-8.27694572 0.07404316 -4.32638261 -0.01723658 0 0 Z " fill="#F5F3F1" transform="translate(127.48828125,19.90234375)"/>
<path d="M0 0 C-2.98524149 1.990161 -5.34485634 2.82925791 -8.75 3.875 C-13.62547125 5.44506701 -17.64308481 7.34796467 -22 10 C-22.66 10 -23.32 10 -24 10 C-24.33 9.01 -24.66 8.02 -25 7 C-22.9195946 5.84856175 -20.83598003 4.70375888 -18.75 3.5625 C-18.16347656 3.23701172 -17.57695313 2.91152344 -16.97265625 2.57617188 C-10.53062222 -0.93437476 -7.09773627 -1.06466044 0 0 Z " fill="#F7F4F2" transform="translate(116,44)"/>
<path d="M0 0 C0.33 1.32 0.66 2.64 1 4 C0.236875 4.433125 -0.52625 4.86625 -1.3125 5.3125 C-3.91541372 6.80690866 -3.91541372 6.80690866 -5.4453125 8.44921875 C-7.54486274 10.54349374 -9.92351468 12.07126146 -12.37890625 13.71875 C-14.28042382 15.08607505 -14.28042382 15.08607505 -16 18 C-16.66 17.67 -17.32 17.34 -18 17 C-18 14 -18 14 -16.6015625 12.421875 C-11.2934678 7.93202414 -5.76416507 3.8860867 0 0 Z " fill="#F5F2EF" transform="translate(73,38)"/>
<path d="M0 0 C5.145995 4.69193661 9.77695498 10.33086494 12 17 C11.67 17.66 11.34 18.32 11 19 C10.34 19 9.68 19 9 19 C8.67386719 18.40832031 8.34773437 17.81664063 8.01171875 17.20703125 C6.68110834 14.80094222 5.34108614 12.40026229 4 10 C3.46375 9.030625 2.9275 8.06125 2.375 7.0625 C1.01041667 4.72916667 1.01041667 4.72916667 -2 3 C-1.34 2.01 -0.68 1.02 0 0 Z " fill="#F6F2EE" transform="translate(224,62)"/>
<path d="M0 0 C0.66 0.33 1.32 0.66 2 1 C0.64746536 7.45054982 -1.03060233 13.71105679 -3 20 C-3.66 20 -4.32 20 -5 20 C-5.33 20.66 -5.66 21.32 -6 22 C-5.125 14.25 -5.125 14.25 -4 12 C-4.33 11.01 -4.66 10.02 -5 9 C-4.34 9 -3.68 9 -3 9 C-2.87625 8.071875 -2.7525 7.14375 -2.625 6.1875 C-2 3 -2 3 0 0 Z " fill="#F6F3F0" transform="translate(50,97)"/>
<path d="M0 0 C3.11005136 1.50812235 6.08940944 3.1751703 9.0625 4.9375 C9.91972656 5.44152344 10.77695313 5.94554687 11.66015625 6.46484375 C13.73902705 7.82877735 15.33373574 9.1698409 17 11 C14 12 14 12 11.9140625 11.109375 C10.78097656 10.43648437 10.78097656 10.43648437 9.625 9.75 C8.43777344 9.05003906 8.43777344 9.05003906 7.2265625 8.3359375 C6.49179688 7.89507812 5.75703125 7.45421875 5 7 C4.01 6.46375 3.02 5.9275 2 5.375 C0 4 0 4 -1 1 C-0.67 0.67 -0.34 0.34 0 0 Z " fill="#F6F4F1" transform="translate(81,208)"/>
<path d="M0 0 C0.66 0.33 1.32 0.66 2 1 C1.67 2.32 1.34 3.64 1 5 C0.34 5 -0.32 5 -1 5 C-1.268125 5.5775 -1.53625 6.155 -1.8125 6.75 C-4.21368404 11.29961186 -6.00955654 13.3814778 -11 15 C-9.66666667 12.33333333 -8.33333333 9.66666667 -7 7 C-6.34 7 -5.68 7 -5 7 C-4.731875 6.401875 -4.46375 5.80375 -4.1875 5.1875 C-3.01506533 3.02775192 -1.80630718 1.64209744 0 0 Z " fill="#F7F3F1" transform="translate(52,56)"/>
<path d="M0 0 C1.23839599 6.65637843 1.09139136 13.2471936 1 20 C1.66 19.67 2.32 19.34 3 19 C3 20.32 3 21.64 3 23 C2.01 23.33 1.02 23.66 0 24 C-1.23535374 16.34800303 -2.33742578 8.72422049 -3 1 C-1 0 -1 0 0 0 Z " fill="#F5F2EE" transform="translate(26,143)"/>
<path d="M0 0 C0.33 0 0.66 0 1 0 C1.45510807 6.67491831 -0.2327574 12.59374557 -2 19 C-2.99 18.67 -3.98 18.34 -5 18 C-4.67 16.02 -4.34 14.04 -4 12 C-3.01 11.67 -2.02 11.34 -1 11 C-1.66 10.67 -2.32 10.34 -3 10 C-2.25 2.25 -2.25 2.25 0 0 Z " fill="#F4F2EF" transform="translate(248,150)"/>
<path d="M0 0 C0.99 0.33 1.98 0.66 3 1 C1.23570801 5.97209562 -1.3939166 10.43438061 -4 15 C-4.99 14.67 -5.98 14.34 -7 14 C-5.53967505 8.68972746 -3.01679014 4.53669968 0 0 Z " fill="#F6F3F2" transform="translate(40,71)"/>
<path d="M0 0 C2 3 2 3 1.828125 4.9375 C1.63734375 5.618125 1.4465625 6.29875 1.25 7 C1.06953125 7.680625 0.8890625 8.36125 0.703125 9.0625 C-0.54022881 12.4886305 -1.97896212 13.98597475 -5 16 C-4.49228528 10.03435204 -2.61407872 5.36190101 0 0 Z " fill="#F6F3F2" transform="translate(31,88)"/>
<path d="M0 0 C1.77260631 0.45142775 3.5430368 0.91140523 5.3125 1.375 C6.79169922 1.75785156 6.79169922 1.75785156 8.30078125 2.1484375 C11 3 11 3 14 5 C13 6 13 6 10.4375 6.25 C6.1243285 5.9363148 2.9890309 4.65063348 -1 3 C-0.67 2.01 -0.34 1.02 0 0 Z " fill="#F6F4F1" transform="translate(101,220)"/>
<path d="M0 0 C0.33 0 0.66 0 1 0 C1.2137731 7.68395543 1.01670288 14.56340812 -1 22 C-1.66 22 -2.32 22 -3 22 C-2.67 18.37 -2.34 14.74 -2 11 C-1.34 11 -0.68 11 0 11 C0 7.37 0 3.74 0 0 Z " fill="#F6F1ED" transform="translate(229,136)"/>
<path d="M0 0 C0.66 0.33 1.32 0.66 2 1 C2 4 2 4 -0.25 6.6875 C-3 9 -3 9 -7 9 C-6.82374165 6.62051228 -6.30280227 5.29774151 -4.59765625 3.62109375 C-3.09350908 2.37884514 -1.54870149 1.18623944 0 0 Z " fill="#F6F4F1" transform="translate(206,76)"/>
<path d="M0 0 C2.33051308 2.86017514 3.98173333 5.43606664 5 9 C4.625 12.3125 4.625 12.3125 4 15 C3 13 3 13 2 11 C1.443125 10.030625 0.88625 9.06125 0.3125 8.0625 C-1.11813778 4.72434517 -1.09659159 3.38946491 0 0 Z " fill="#F5F2EE" transform="translate(239,86)"/>
<path d="M0 0 C-3.0469629 1.69433918 -5.82821466 2.49467112 -9.25 3.125 C-10.58804688 3.37636719 -10.58804688 3.37636719 -11.953125 3.6328125 C-12.96632813 3.81457031 -12.96632813 3.81457031 -14 4 C-14.33 3.01 -14.66 2.02 -15 1 C-9.69276568 -0.42705634 -5.46108889 -1.4002792 0 0 Z " fill="#F4F1EE" transform="translate(116,23)"/>
<path d="M0 0 C1.32 0.66 2.64 1.32 4 2 C3.43410156 2.40992188 2.86820313 2.81984375 2.28515625 3.2421875 C1.55167969 3.78101563 0.81820312 4.31984375 0.0625 4.875 C-0.66839844 5.40867187 -1.39929688 5.94234375 -2.15234375 6.4921875 C-4.11098235 7.88012104 -4.11098235 7.88012104 -5 10 C-5.66 10 -6.32 10 -7 10 C-6.649375 9.38125 -6.29875 8.7625 -5.9375 8.125 C-5.628125 7.42375 -5.31875 6.7225 -5 6 C-5.33 5.34 -5.66 4.68 -6 4 C-4.02 2.68 -2.04 1.36 0 0 Z " fill="#F7F6F3" transform="translate(87,53)"/>
<path d="M0 0 C0.99 0.33 1.98 0.66 3 1 C1.90931332 4.77545388 1.0916909 7.47043472 -2 10 C-2.6875 8.375 -2.6875 8.375 -3 6 C-1.5625 2.75 -1.5625 2.75 0 0 Z " fill="#F8F6F3" transform="translate(54,88)"/>
<path d="M0 0 C0.66 0 1.32 0 2 0 C2 0.66 2 1.32 2 2 C3.32 2.66 4.64 3.32 6 4 C5.34 5.32 4.68 6.64 4 8 C3.67 7.34 3.34 6.68 3 6 C1.35636866 5.27840576 -0.31050386 4.60648579 -2 4 C-1.34 2.68 -0.68 1.36 0 0 Z " fill="#F6F3F0" transform="translate(63,75)"/>
<path d="M0 0 C4.20626034 1.50223584 5.73900021 4.28550034 8 8 C7.01 8.495 7.01 8.495 6 9 C0.125 4.375 0.125 4.375 -1 1 C-0.67 0.67 -0.34 0.34 0 0 Z " fill="#F6F4F0" transform="translate(213,50)"/>
<path d="M0 0 C0 0.66 0 1.32 0 2 C-4.07369424 4.03684712 -6.58937864 4.0257259 -11 3 C-3.71428571 -1.85714286 -3.71428571 -1.85714286 0 0 Z " fill="#F6F4F2" transform="translate(169,222)"/>
<path d="M0 0 C3.91211733 1.15585285 6.8745041 2.35534962 10 5 C8.4375 5.75 8.4375 5.75 6 6 C3.49713591 4.86915563 1.32992278 3.47860484 -1 2 C-0.67 1.34 -0.34 0.68 0 0 Z " fill="#F6F4F1" transform="translate(183,30)"/>
<path d="M0 0 C0 0.66 0 1.32 0 2 C-3.78187881 3.83691257 -5.94568308 4.15837626 -10 3 C-3.66666667 -1.22222222 -3.66666667 -1.22222222 0 0 Z " fill="#F6F5F2" transform="translate(179,218)"/>
<path d="M0 0 C3.36591866 1.44253657 5.51047079 3.33264727 8 6 C7.01 6.33 6.02 6.66 5 7 C2.7363436 5.59554165 0.9791315 3.8032087 -1 2 C-0.67 1.34 -0.34 0.68 0 0 Z " fill="#F7F4F2" transform="translate(201,40)"/>
<path d="M0 0 C2.4375 0.75 2.4375 0.75 5 2 C5.8125 4.125 5.8125 4.125 6 6 C5.01 6 4.02 6 3 6 C2.67 5.34 2.34 4.68 2 4 C1.01 4 0.02 4 -1 4 C-0.67 2.68 -0.34 1.36 0 0 Z " fill="#F6F2F0" transform="translate(193,35)"/>
<path d="M0 0 C-0.33 4.62 -0.66 9.24 -1 14 C-1.33 14 -1.66 14 -2 14 C-2.33 9.71 -2.66 5.42 -3 1 C-1 0 -1 0 0 0 Z " fill="#F6F3EE" transform="translate(249,115)"/>
<path d="M0 0 C0 3 0 3 -2 5.1875 C-2.66 5.785625 -3.32 6.38375 -4 7 C-4.33 6.01 -4.66 5.02 -5 4 C-3 1 -3 1 0 0 Z " fill="#F8F7F5" transform="translate(61,81)"/>
<path d="M0 0 C-0.33 0.66 -0.66 1.32 -1 2 C-3.3431213 1.74438677 -5.67843403 1.40729228 -8 1 C-8.33 0.34 -8.66 -0.32 -9 -1 C-5.79937313 -2.60031344 -3.27728194 -1.03173691 0 0 Z " fill="#F5F2F0" transform="translate(181,28)"/>
<path d="M0 0 C0.99 0.33 1.98 0.66 3 1 C3 1.66 3 2.32 3 3 C-2.75 4.125 -2.75 4.125 -5 3 C-2.6875 1.4375 -2.6875 1.4375 0 0 Z " fill="#F7F3F0" transform="translate(79,34)"/>
<path d="M0 0 C2 1 2 1 3 3 C0.6875 4.125 0.6875 4.125 -2 5 C-2.99 4.34 -3.98 3.68 -5 3 C-2.625 1.4375 -2.625 1.4375 0 0 Z " fill="#F5F4F0" transform="translate(86,30)"/>
<path d="M0 0 C3.625 0.375 3.625 0.375 7 1 C6.67 1.66 6.34 2.32 6 3 C3.36 2.67 0.72 2.34 -2 2 C-1.34 1.34 -0.68 0.68 0 0 Z " fill="#F4F1EE" transform="translate(158,22)"/>
<path d="M0 0 C0 0.99 0 1.98 0 3 C-1.98 3.99 -1.98 3.99 -4 5 C-4.33 3.68 -4.66 2.36 -5 1 C-3.35 0.67 -1.7 0.34 0 0 Z " fill="#F7F5F3" transform="translate(192,93)"/>
<path d="M0 0 C0.66 0.33 1.32 0.66 2 1 C2 1.99 2 2.98 2 4 C0.68 4.33 -0.64 4.66 -2 5 C-2.33 4.01 -2.66 3.02 -3 2 C-2.01 1.34 -1.02 0.68 0 0 Z " fill="#F9F8F5" transform="translate(94,49)"/>
</svg>
